<?xml version="1.0" encoding="utf-8"?>
<!-- Generator: Adobe Illustrator 25.2.1, SVG Export Plug-In . SVG Version: 6.00 Build 0)  -->
<svg version="1.1" id="Layer_1" xmlns="http://www.w3.org/2000/svg" xmlns:xlink="http://www.w3.org/1999/xlink" x="0px" y="0px"
	 viewBox="0 0 2500 1261.3" style="enable-background:new 0 0 2500 1261.3;" xml:space="preserve">
<style type="text/css">
	.st0{fill-rule:evenodd;clip-rule:evenodd;fill:url(#Rectangle_3_);}
	.st1{display:none;}
	.st2{display:inline;fill-rule:evenodd;clip-rule:evenodd;fill:#FEFED0;}
	.st3{display:inline;fill-rule:evenodd;clip-rule:evenodd;fill:#FF8D62;}
	.st4{display:inline;fill-rule:evenodd;clip-rule:evenodd;fill:#FFFFFF;fill-opacity:0.2;}
	.st5{display:none;fill-rule:evenodd;clip-rule:evenodd;fill-opacity:0.2;}
	.st6{fill-rule:evenodd;clip-rule:evenodd;fill-opacity:0;}
	.st7{fill-rule:evenodd;clip-rule:evenodd;fill:#E93737;}
	.st8{fill-rule:evenodd;clip-rule:evenodd;fill:#EECCDC;}
	.st9{fill-rule:evenodd;clip-rule:evenodd;fill:#EC7070;}
	.st10{fill-rule:evenodd;clip-rule:evenodd;fill:#FC7750;}
	.st11{fill-rule:evenodd;clip-rule:evenodd;fill:#FFFFFF;}
	.st12{fill-rule:evenodd;clip-rule:evenodd;fill:#204EB2;}
	.st13{fill-rule:evenodd;clip-rule:evenodd;fill:#F9C818;}
	.st14{fill-rule:evenodd;clip-rule:evenodd;fill:#56ACF6;}
	.st15{fill-rule:evenodd;clip-rule:evenodd;fill:#0A4343;}
	.st16{fill-rule:evenodd;clip-rule:evenodd;fill:#1BC0D7;}
	.st17{fill-rule:evenodd;clip-rule:evenodd;fill:#237978;}
	.st18{fill-rule:evenodd;clip-rule:evenodd;fill:#FEA78D;}
	.st19{fill-rule:evenodd;clip-rule:evenodd;fill:#165C5D;}
	.st20{fill-rule:evenodd;clip-rule:evenodd;fill:#FCEBEC;}
	.st21{fill-rule:evenodd;clip-rule:evenodd;}
	.st22{display:inline;}
	.st23{fill-rule:evenodd;clip-rule:evenodd;fill:#F6CBC3;}
	.st24{fill-rule:evenodd;clip-rule:evenodd;fill:#1F9BEB;}
	.st25{fill-rule:evenodd;clip-rule:evenodd;fill:#C86A5D;}
	.st26{fill-rule:evenodd;clip-rule:evenodd;fill:#995B5D;}
	.st27{fill-rule:evenodd;clip-rule:evenodd;fill:#F8D8B8;}
	.st28{fill-rule:evenodd;clip-rule:evenodd;fill:#E4F9FF;}
	.st29{fill-rule:evenodd;clip-rule:evenodd;fill:#2E2C36;}
	.st30{fill-rule:evenodd;clip-rule:evenodd;fill:#3B3D4A;}
	.st31{fill:none;stroke:#FFFFFF;stroke-width:10;}
	.st32{fill-rule:evenodd;clip-rule:evenodd;fill:#F7C8A9;}
	.st33{fill-rule:evenodd;clip-rule:evenodd;fill:#353644;}
	.st34{fill-rule:evenodd;clip-rule:evenodd;fill:#2C262B;}
	.st35{fill-rule:evenodd;clip-rule:evenodd;fill:#3E454F;}
	.st36{fill:none;stroke:#000000;stroke-width:4;}
	.st37{fill:#C86A5D;}
	.st38{fill-rule:evenodd;clip-rule:evenodd;fill:#49352E;}
	.st39{fill:none;}
	.st40{fill-rule:evenodd;clip-rule:evenodd;fill:#3267C8;}
	.st41{fill:none;stroke:#000000;stroke-width:3;}
	.st42{fill-rule:evenodd;clip-rule:evenodd;fill:#F0ECEC;}
	.st43{fill-rule:evenodd;clip-rule:evenodd;fill:#E0D3CC;}
	.st44{fill-rule:evenodd;clip-rule:evenodd;fill:#E7DADA;}
	.st45{fill-rule:evenodd;clip-rule:evenodd;fill:#F9F9F9;}
	.st46{fill-rule:evenodd;clip-rule:evenodd;fill:#EEDFD9;}
	.st47{fill-rule:evenodd;clip-rule:evenodd;fill:#46AFAC;}
	.st48{clip-path:url(#SVGID_2_);}
	.st49{fill:#FFFFFF;}
	.st50{font-family:'SourceSansPro-Semibold';}
	.st51{font-size:53.3333px;}
	.st52{letter-spacing:1;}
	.st53{letter-spacing:2;}
	.st54{display:inline;fill:#FFFFFF;}
	.st55{font-family:'SourceSansPro-Bold';}
	.st56{font-size:195.5556px;}
	.st57{letter-spacing:5;}
	.st58{letter-spacing:3;}
	.st59{letter-spacing:4;}
	.st60{clip-path:url(#SVGID_4_);}
</style>
<g id="Sky_x2F_Space-Desert">
	
		<linearGradient id="Rectangle_3_" gradientUnits="userSpaceOnUse" x1="870.1487" y1="1171.2179" x2="870.1487" y2="1170.2113" gradientTransform="matrix(2500 0 0 -1253 -2174130 1467536)">
		<stop  offset="0" style="stop-color:#551B95"/>
		<stop  offset="0.6614" style="stop-color:#EC742D"/>
		<stop  offset="1" style="stop-color:#F7C678"/>
	</linearGradient>
	<rect id="Rectangle" x="-16.5" class="st0" width="2516.5" height="1261.3"/>
	<g id="Group" transform="translate(1712.000000, 281.000000)" class="st1">
		<circle id="Oval" class="st2" cx="239" cy="80.5" r="80.5"/>
		<ellipse id="Oval_1_" class="st3" cx="501" cy="279.5" rx="135.5" ry="134.5"/>
		<path id="Path-3" class="st4" d="M-16.4,310c6.4-10.9,206.2-23,278.1-23s289.9,15.5,289.9,23S-22.8,320.9-16.4,310z"/>
	</g>
	<path id="Path-3_1_" class="st5" d="M22.6,441.6C33.8,421,245.1,389,481,389s540.9,38.4,540.9,52.6S11.4,462.2,22.6,441.6z"/>
	<g id="SCALABLE">
		<rect id="Rectangle_1_" x="-16.5" class="st6" width="2500" height="1024"/>
	</g>
</g>
<g>
	<g id="Master_x2F_Scene_x2F_Alone-Time-1">
		<g id="Background" transform="translate(1152.000000, 431.000000)">
			<g id="Painting" transform="translate(2781.310000, 1.920000)">
				<g>
					<polygon id="Fill-2" class="st7" points="-2675.5,169.7 -2491,169.7 -2491,-47.9 -2675.5,-47.9 					"/>
					<polygon id="Fill-3" class="st8" points="-2670.4,164.5 -2495.5,164.5 -2495.5,-42.8 -2670.4,-42.8 					"/>
					<polygon id="Fill-4" class="st9" points="-2564.5,91.8 -2495.5,91.8 -2495.5,10.1 -2564.5,10.1 					"/>
					<polygon id="Fill-5" class="st7" points="-2550.4,84.8 -2541.1,84.8 -2541.1,19.4 -2550.4,19.4 					"/>
					<polygon id="Fill-7" class="st7" points="-2564.5,10.1 -2579.7,38.3 -2579.5,91.5 -2564.5,91.8 					"/>
					<polygon id="Fill-8" class="st9" points="-2670.6,164.5 -2610,164.5 -2610,83.5 -2670.6,83.5 					"/>
					<polygon id="Fill-9" class="st7" points="-2653.2,120 -2610,120 -2610,99.9 -2653.2,99.9 					"/>
					<polygon id="Fill-10" class="st7" points="-2653.2,150.8 -2610,150.8 -2610,129.4 -2653.2,129.4 					"/>
					<polygon id="Fill-11" class="st9" points="-2579.4,164.5 -2495.5,164.5 -2495.5,82.8 -2579.4,82.8 					"/>
					<polygon id="Fill-12" class="st7" points="-2563.6,120.4 -2495.5,120.4 -2495.5,99.9 -2563.6,99.9 					"/>
					<polygon id="Fill-13" class="st7" points="-2563.4,151.3 -2495.3,151.3 -2495.3,130.8 -2563.4,130.8 					"/>
					<polygon id="Fill-14" class="st7" points="-2579.4,82.8 -2594.7,111 -2594.4,164.2 -2579.4,164.5 					"/>
					<path id="Fill-16" class="st10" d="M-2612,0.7c0,10.7-8.7,19.4-19.4,19.4s-19.4-8.7-19.4-19.4s8.7-19.4,19.4-19.4
						S-2612-10-2612,0.7"/>
					<polygon id="Fill-6" class="st7" points="-2527.9,84.8 -2518.6,84.8 -2518.6,19.4 -2527.9,19.4 					"/>
					<polygon id="Fill-15" class="st7" points="-2504.9,85.1 -2495.5,85.1 -2495.5,19.4 -2504.9,19.4 					"/>
				</g>
			</g>
			<g id="Painting_x2F_Horizontal_x2F_Painting-1" transform="translate(1922.000000, 0.000000)">
				<g id="Painting_1_">
					<polygon id="Fill-45" class="st7" points="-1970.8,44.9 -1832.6,44.9 -1832.6,-46.3 -1970.8,-46.3 					"/>
					<polygon id="Fill-46" class="st8" points="-1966.5,40.4 -1837.5,40.4 -1837.5,-41.1 -1966.5,-41.1 					"/>
					<path id="Fill-47" class="st11" d="M-1916.3,3.2c-0.7-2.5-2.6-4.5-4.9-5.5c-2.5-1.1-5.3-0.9-7.7,0.3c-1.3,0.7-2.5,1.7-3.3,2.9
						c-0.2,0.3,0.1,0.9,0.5,0.8c1.3-0.2,2.6-0.3,3.9,0c0.9,0.3,1.8,0.9,2,2c0.2-0.2,0.3-0.4,0.5-0.7c-1.5-0.1-3-0.3-4.5-0.4
						c-1.3-0.1-2.8-0.4-3.9,0.4c-0.5,0.4-0.9,0.8-1.3,1.3c-0.4,0.6-0.9,1.1-1.3,1.7c-0.9,1.1-1.7,2.3-2.6,3.4
						c-0.4,0.5,0.4,1.1,0.8,0.6c2.1-2.3,5.6-3.3,8.6-2.6c0-0.3-0.1-0.7-0.1-1c-2.7,1.3-5.5,2.5-8.2,3.9c-1.1,0.6-2.2,1.3-3.1,2.2
						c-0.8,1-1.3,2.1-1.6,3.3c-0.3,1.4-0.4,2.8-0.4,4.2c0,0.4,0.6,0.7,0.9,0.4c1.8-2,3.6-4,5.8-5.5c2.1-1.4,4.7-2.4,7.3-2.2
						c-0.1-0.3-0.2-0.7-0.3-1c-1.5,1.1-3,2.2-4.6,3.3c-1.3,1-2.7,1.9-3.9,3c-2.2,1.9-4.2,4.5-4.2,7.6c0,1.6,0.5,3.1,1.6,4.3
						c0.2,0.2,0.7,0.2,0.8-0.1c1.5-3.3,4.1-5.9,7.4-7.6c-0.2-0.3-0.4-0.6-0.6-0.8c-1.3,1.5-2.6,3.1-3.7,4.7
						c-0.5,0.8-1.1,1.6-1.5,2.5c-0.3,0.6-0.6,1.4-0.6,2.1s0.3,1.4,0.9,1.8c0.7,0.4,1.5,0.4,2.3,0.1c0.8-0.4,1.3-1,1.6-1.8
						c0.3-0.9,0.4-1.8,0.7-2.7c0.6-1.7,2.1-3,3.8-3.5c-0.2-0.2-0.4-0.4-0.7-0.7c-1.3,3.1-2.8,6.1-4.4,9c-0.2,0.4,0.1,1,0.6,0.8
						c1.3-0.5,2.5-1.3,3.7-2.2c1.1-0.9,2.2-1.8,3.2-2.8c0.9-0.9,1.5-1.9,1.8-3.2c0.2-1.1,0.2-2.2,0.4-3.3c0.1-1.1,0.4-2.2,1.3-2.9
						l-0.8-0.3c0.7,2.6,0.5,5.3-0.6,7.8c-0.2,0.5,0.4,1.2,0.8,0.6c1.4-1.5,3.5-2.2,5.5-1.9c0.4,0.1,0.7-0.2,0.7-0.7
						c-0.3-1.6-1.5-2.9-2.4-4.2c-0.7-1-1.3-2.7-0.3-3.8c-0.3,0-0.6-0.1-0.8-0.1c1.5,2.4,2.6,5.1,3.4,7.8c0.1,0.5,0.7,0.5,1,0.1
						c0.6-0.9,1.9-1,2.8-1.3c1-0.4,2.1-1.2,2.1-2.4c0-0.7-0.4-1.2-0.8-1.7c-0.4-0.6-0.9-1.3-1.3-1.9l-2.6-3.8
						c-0.3,0.3-0.5,0.5-0.7,0.7c3.1,2,4.7,5.5,6.1,8.7c0.2,0.4,0.9,0.3,1-0.1c0.4-1.2,1-2.3,1.9-3.3c0.4-0.5,0.9-0.9,1.4-1.3
						s1-0.7,1.4-1.2c0.9-1,0.9-2.3,0.2-3.4c-0.7-1.1-1.9-1.9-3.1-2.5c-1.4-0.7-2.9-1.2-4.4-1.5v1c2.7-0.5,5.6,0.2,7.7,1.8
						c0.3,0.2,0.7,0,0.8-0.3c0.5-1.9,0.6-4.1-0.3-6c-1-2.1-3.1-3.1-5.4-2.8c-2.6,0.3-4.9,2.1-7,3.6c-2,1.5-3.9,3.1-5.6,5
						c-1.8,2.1-3.1,4.4-3.7,7.1c-0.1,0.5,0.5,1,0.9,0.5c1.4-1.6,2.9-3.2,4.3-4.7c1.3-1.5,2.6-3,4.1-4.4c1.2-1.2,2.6-2.3,4.3-2.7
						c1.6-0.4,3.3-0.1,4.9,0.5c3.3,1.3,5.3,4.4,6.7,7.5c1.5,3.5,2.4,7.3,2.9,11.1c0.5,4.4,0.3,8.8-0.5,13.2h1
						c-1.7-5.8-1.7-11.8-1.4-17.8c0.4-6,1-12.1,0.6-18.1c-0.2-3.1-0.9-6.2-1.6-9.2s-1.3-6-1.2-9.1c0.1-2.7,0.8-5.4,2.5-7.6
						c1.5-1.9,3.6-3.3,6-3.7c0.7-0.1,1.3-0.1,1.9,0.2c0.6,0.3,1,0.9,1.4,1.3c0.9,1,1.7,2.1,2.4,3.3c1.3,2.3,2.2,4.9,2.5,7.6
						c0.1,0.7,0.1,1.3,0.1,2c0.3-0.1,0.7-0.2,1-0.3c-2.1-3.7-4.3-7.3-6.4-11c-1.6-2.7-3.9-6.6-1.5-9.5c1.8-2.1,4.8-2.7,7.4-2.6
						c3,0.2,5.9,1.6,8.1,3.5c2.5,2.2,4.3,5.2,4.6,8.5c0.3-0.1,0.6-0.3,0.9-0.4c-3.8-3-9.1-3.9-13.7-2.5c-0.5,0.1-0.6,1,0,1
						c3.4,0.6,7,1.3,10,3.1c1.4,0.8,2.6,2,3.3,3.4c0.8,1.4,1,3.1,0.7,4.7c-0.3,1.9-1.3,3.5-2.7,4.7c0.3,0,0.6,0.1,0.8,0.1
						c-1.9-3-4.3-5.7-7.1-7.9c-0.2,0.3-0.4,0.6-0.6,0.8c1.9,1,3.9,2.9,3.9,5.2c0,1.2-0.8,2.1-1.6,3c-0.9,1-1.8,1.9-2.4,3.1
						c-0.8,1.3-1.3,2.7-1.6,4.1c0.3-0.1,0.6-0.2,0.9-0.2c-3.1-3.3-8.4-4.2-12.5-2.4c0.3,0.1,0.5,0.1,0.7,0.2
						c-1.9-3.1,0.6-6.7,1.8-9.6c0.4-0.8,0.7-1.7,0.8-2.6c0.1-0.8,0-1.6-0.6-2.1c-1.1-0.9-2.8-0.6-3.7,0.4c-1.2,1.3-1.3,3.2-1.5,4.9
						c-0.2,2-0.2,3.9,0.1,5.9c0.1,0.4,0.2,0.8,0.2,1.2c0,0.2,0,0.1-0.2,0.1s-0.4-0.1-0.6-0.2c-1-0.3-2-0.6-3-1
						c-0.6-0.2-1.8-0.4-1.8-1.2c0-0.4,0.1-0.8,0.2-1.2c0.1-0.5,0.2-0.9,0.3-1.4c1-3.9,2.9-7.5,5.3-10.7c0.3-0.4-0.2-1-0.6-0.8
						c-4,1.7-6.6,5.2-8.5,8.9c-0.5,1.1-1,2.1-1.5,3.2c0.2-0.1,0.3-0.2,0.5-0.3c-2.5-0.2-3.9-3-3.3-5.3c0.8-3,3.6-4.9,6.1-6.4
						c1.6-1,3.3-1.9,4.8-3.1c0.4-0.3,0.1-0.9-0.4-0.9c-4.7,0-9.3,1.8-12.6,5.1h0.8c-1.6-1.3-1.7-3.5-1-5.3c0.9-2.1,2.9-3.5,5-4.4
						c1.3-0.6,2.7-1,4-1.5c0.7-0.2,0.4-1.3-0.3-1c-2.6,0.8-5.3,1.7-7.4,3.4c-1.8,1.5-3,3.8-2.8,6.2c0.1,1.3,0.7,2.4,1.7,3.3
						c0.2,0.2,0.5,0.2,0.8,0c3.1-3.1,7.5-4.8,11.9-4.8c-0.1-0.3-0.3-0.6-0.4-0.9c-2.7,2.3-6.2,3.5-8.8,6.1c-1.1,1.1-2.1,2.5-2.4,4.1
						c-0.3,1.3,0,2.8,0.6,4c0.8,1.4,2.2,2.3,3.8,2.5c0.2,0,0.4-0.1,0.5-0.3c1.6-3.6,3.4-7.4,6.5-9.9c0.8-0.7,1.8-1.3,2.8-1.7
						c-0.2-0.3-0.4-0.5-0.6-0.8c-2.2,2.9-3.9,6.2-5,9.7c-0.3,0.9-0.5,1.7-0.7,2.6c-0.2,0.8-0.4,1.7,0.1,2.4s1.4,1,2.2,1.2
						c1,0.3,2,0.6,3,1c0.4,0.1,0.8,0.3,1.3,0.3c0.4-0.1,0.8-0.3,0.9-0.8c0.1-0.4,0-0.7,0-1.1c-0.1-0.5-0.1-1-0.2-1.6
						c-0.2-2-0.1-4,0.2-6c0.2-1.3,0.5-3.3,2.1-3.6c0.5-0.1,1.2,0,1.3,0.6c0.1,0.4,0,0.8-0.1,1.2c-0.1,0.5-0.3,0.9-0.4,1.4
						c-0.7,1.9-1.8,3.7-2.4,5.6c-0.5,1.8-0.6,3.9,0.4,5.6c0.2,0.3,0.5,0.3,0.7,0.2c3.7-1.6,8.4-0.7,11.2,2.2
						c0.3,0.3,0.8,0.2,0.9-0.2c0.3-1.4,0.8-2.7,1.5-3.9s1.7-2.2,2.6-3.2s1.5-2,1.6-3.3c0-1.2-0.4-2.4-1.1-3.3
						c-0.8-1.2-2-2.2-3.3-2.9c-0.5-0.3-1.2,0.4-0.6,0.8c2.7,2.2,5.1,4.8,7,7.7c0.2,0.3,0.6,0.3,0.8,0.1c2.8-2.3,3.9-6.4,2.6-9.8
						c-1.4-3.5-4.8-5.4-8.2-6.5c-2-0.6-4.2-1.1-6.3-1.4v1c4.2-1.3,9.2-0.6,12.7,2.2c0.3,0.3,1,0.1,0.9-0.4
						c-0.6-6.5-6.2-11.9-12.5-13c-3-0.5-6.3,0.1-8.6,2c-1.1,0.9-1.9,2.2-2.1,3.7c-0.3,2,0.5,4,1.4,5.8c1.2,2.2,2.5,4.3,3.7,6.5
						c1.3,2.2,2.6,4.4,3.8,6.6c0.3,0.5,1,0.3,1-0.3c0-2.8-0.6-5.6-1.7-8.2c-0.6-1.3-1.3-2.5-2.1-3.6s-1.7-2.3-2.8-3.2
						c-1.2-0.9-2.7-0.6-4-0.3c-1.2,0.3-2.4,0.9-3.4,1.7c-2.1,1.6-3.6,3.9-4.3,6.5c-1.8,6.4,0.8,12.7,1.8,19c1,6.2,0.4,12.5-0.1,18.7
						c-0.4,6.2-0.8,12.5,0.6,18.6c0.2,0.8,0.4,1.5,0.6,2.2c0.1,0.5,0.9,0.5,1,0c1.6-8,0.9-16.6-2.1-24.2c-1.3-3.3-3.3-6.6-6.5-8.4
						c-1.5-0.8-3.3-1.3-5.1-1.3c-1.9,0.1-3.5,0.8-5,1.9c-1.7,1.4-3.1,3.1-4.6,4.8c-1.7,1.9-3.4,3.7-5.1,5.6c0.3,0.2,0.6,0.3,0.9,0.5
						c0.8-4.5,4.2-8,7.7-10.7c0.9-0.7,1.9-1.4,2.8-2.1c1-0.7,2.1-1.4,3.2-1.8c1.1-0.4,2.3-0.6,3.4-0.3c0.8,0.3,1.6,0.8,2.1,1.5
						c1.1,1.7,1.1,3.9,0.6,5.8l0.8-0.3c-2.4-1.8-5.6-2.5-8.6-1.9c-0.5,0.1-0.5,1,0,1c1.3,0.2,2.5,0.5,3.7,1.1c1.1,0.5,2.2,1.2,3,2.1
						c0.3,0.4,0.6,1,0.6,1.5c-0.1,0.5-0.4,0.9-0.8,1.3s-0.9,0.7-1.3,1c-0.5,0.4-0.9,0.8-1.3,1.3c-0.9,1-1.6,2.2-2,3.5
						c0.3,0,0.7-0.1,1-0.1c-1.5-3.5-3.2-7-6.5-9.1c-0.4-0.3-1,0.3-0.7,0.7c0.8,1.2,1.6,2.3,2.4,3.5c0.4,0.6,0.8,1.2,1.3,1.8
						c0.3,0.4,0.8,1,0.9,1.5c0.1,1-1.4,1.4-2.1,1.6c-1,0.3-2,0.6-2.6,1.5c0.3,0,0.7,0.1,1,0.1c-0.8-2.8-2-5.6-3.5-8.1
						c-0.2-0.3-0.6-0.4-0.8-0.1c-1.2,1.3-0.9,3.1-0.2,4.5c0.8,1.5,2.3,2.7,2.6,4.5c0.2-0.2,0.4-0.4,0.7-0.7
						c-2.4-0.4-4.9,0.4-6.6,2.2c0.3,0.2,0.6,0.4,0.8,0.6c1.2-2.7,1.5-5.7,0.7-8.6c-0.1-0.3-0.5-0.5-0.8-0.3c-1.9,1.4-1.8,3.7-2,5.8
						c-0.1,1.1-0.3,2.2-1,3c-0.4,0.6-1,1-1.5,1.5c-0.5,0.4-1,0.9-1.5,1.3c-1.2,1-2.5,1.9-4,2.5c0.2,0.3,0.4,0.5,0.6,0.8
						c1.7-3,3.2-6.1,4.5-9.2c0.2-0.4-0.3-0.8-0.7-0.7c-1.5,0.5-2.8,1.4-3.7,2.6c-0.4,0.6-0.8,1.3-1,2c-0.2,0.8-0.3,1.7-0.6,2.4
						c-0.3,0.6-0.8,1.1-1.5,1.2c-0.6,0.1-1-0.3-1.1-0.8c-0.1-0.6,0.1-1.2,0.4-1.7c0.4-0.8,0.8-1.5,1.3-2.2c1.1-1.7,2.4-3.4,3.8-4.9
						c0.4-0.4-0.1-1.1-0.6-0.8c-3.4,1.7-6.2,4.5-7.7,8c0.3,0,0.6-0.1,0.8-0.1c-1.8-1.9-1.6-4.8-0.4-7c1.5-2.6,4-4.3,6.4-6
						c1.6-1.2,3.2-2.3,4.8-3.5c0.4-0.3,0.3-1-0.3-1c-2.7-0.1-5.4,0.8-7.7,2.3c-2.4,1.6-4.3,3.7-6.2,5.7c0.3,0.1,0.6,0.3,0.9,0.4
						c0.1-2.2,0.1-4.8,1.6-6.6c0.8-1,1.8-1.6,2.9-2.2c1.2-0.6,2.5-1.2,3.7-1.7c1.5-0.7,3-1.4,4.5-2.1c0.4-0.2,0.3-0.9-0.1-1
						c-3.4-0.8-7.3,0.2-9.7,2.8c0.3,0.2,0.6,0.4,0.8,0.6c0.8-1.1,1.6-2.2,2.4-3.2c0.4-0.5,0.8-1,1.2-1.6c0.4-0.4,0.7-0.9,1.2-1.3
						s1-0.4,1.6-0.4c0.7,0,1.3,0.1,2,0.2c1.4,0.1,2.8,0.3,4.2,0.4c0.4,0,0.6-0.4,0.5-0.7c-0.2-1.3-1.3-2.2-2.4-2.6
						c-1.4-0.6-3-0.4-4.5-0.2c0.2,0.3,0.3,0.5,0.5,0.8c1.3-1.9,3.5-3.1,5.7-3.3c2.3-0.2,4.6,0.6,6.3,2.2c0.9,0.9,1.6,2,1.9,3.2
						C-1917.2,4.2-1916.1,3.9-1916.3,3.2"/>
				</g>
				<g id="SCALABLE_15_">
					<rect id="Rectangle_34_" x="-1970.8" y="-46.3" class="st6" width="138" height="91.2"/>
				</g>
			</g>
			<g id="Painting_x2F_Vertical_x2F_Painting-3" transform="translate(2206.000000, 628.000000)">
				<g id="Group-9">
					<polygon id="Fill-1" class="st7" points="-2203.7,-456.2 -2116.8,-456.2 -2116.8,-561.3 -2203.7,-561.3 					"/>
					<polygon id="Fill-2_1_" class="st12" points="-2198.9,-461.6 -2121,-461.6 -2121,-502.8 -2198.9,-502.8 					"/>
					<polygon id="Fill-3_1_" class="st10" points="-2198.8,-499 -2120.9,-499 -2120.9,-556.1 -2198.8,-556.1 					"/>
					<g id="Group-8" transform="translate(165.000000, 266.000000)">
						<path id="Fill-4_1_" class="st13" d="M-2310.9-765.2c0,0.1,0,0.2,0,0.2h-28.1c0-0.1,0-0.2,0-0.2c0-7.8,6.3-14,14-14
							C-2317.2-779.3-2310.9-773-2310.9-765.2"/>
						<path id="Fill-6_1_" class="st14" d="M-2311-765c-0.1,7.6-6.4,13.8-14,13.8s-13.9-6.2-14-13.8H-2311z"/>
					</g>
				</g>
				<g id="SCALABLE_1_">
					<rect id="Rectangle_32_" x="-2203.7" y="-561.3" class="st6" width="86.9" height="104.9"/>
				</g>
			</g>
			<path id="Rectangle_16_" class="st8" d="M-203.3,139.4h111c3.9,0,7.1,3.2,7.1,7.1l0,0c0,3.9-3.2,7.1-7.1,7.1h-111
				c-3.9,0-7.1-3.2-7.1-7.1l0,0C-210.4,142.6-207.3,139.4-203.3,139.4z"/>
			<g id="Small-Objects_x2F_Plant-1" transform="translate(1123.000000, 102.000000)">
				<g id="Group-51" transform="translate(67.000000, 134.000000)">
					<path id="Fill-1_1_" class="st15" d="M-1328.5-142.4l-0.7-31.6c-0.4-16.4,4.9-28.3,9.3-35.3c4.8-7.6,9.7-11.3,9.9-11.5l0.5,0.7
						c-0.1,0-5,3.8-9.7,11.3c-4.4,6.9-9.5,18.6-9.2,34.8l0.7,31.6H-1328.5z"/>
					<path id="Fill-3_2_" class="st15" d="M-1344.2-130.2l-0.5-32.9c-0.3-16.9-6.2-32.9-11-43.4c-5.3-11.3-10.6-18.8-10.7-18.8
						l0.7-0.5c0.1,0.1,5.4,7.5,10.7,18.9c4.9,10.5,10.9,26.7,11.1,43.7l0.5,32.9L-1344.2-130.2z"/>
					<path id="Fill-5_1_" class="st15" d="M-1340.3-159.4c-0.1,0-0.2,0-0.2-0.1c-0.4-0.2-0.8-0.4-0.6-9c0.2-7.9-0.9-21.1-7-38.8
						c-3.6-10.6-7.3-17.9-7.4-18l0.8-0.4c0,0.1,3.8,7.4,7.4,18.1c3.4,9.9,7.3,24.7,7,39.1c-0.1,3.7,0,5.7,0.1,6.8
						c0.5-2.8,1.2-9.6,1.4-18c0.2-7.4,0.3-21.3-2-31.3l-5.2-23l0.9-0.2l5.2,23c2.3,10.2,2.3,24.4,2,31.9c-0.1,4.8-0.4,9.6-0.9,13.4
						c-0.6,5.7-1,6-1.2,6.2C-1340-159.4-1340.2-159.4-1340.3-159.4"/>
					<path id="Fill-7_1_" class="st15" d="M-1333.9-153.4l-0.2-0.2c-0.2-0.2-0.2-0.2-0.2-2.2c0-1.3,0.1-3.1,0.1-5.1
						c0.1-1.7,0.1-4,0.3-6.5c0.2-28-2-64.8-2.1-65.2l0.9-0.1c0,0.3,1.6,27.4,2,52.8c1-11.5,2.8-26.3,6.1-36
						c3.6-10.5,7.6-16.3,12-17.1c3.3-0.6,5.4,1.8,5.5,1.9l-0.7,0.6c-0.1-0.1-1.9-2.1-4.6-1.6c-2.8,0.5-7,3.9-11.3,16.5
						c-4.3,12.7-6.2,34.6-6.9,48.6c0,1.8,0,3.6-0.1,5.3c-0.1,2.5-0.1,4.6-0.2,6c-0.1,2.1-0.1,2.1-0.4,2.3H-1333.9z"/>
					<path id="Fill-9_1_" class="st15" d="M-1334.8-151.8l-3.7-28.9c-3.6-28.6-11.5-47.8-11.6-48l0.8-0.3c0.1,0.2,8,19.5,11.7,48.2
						l3.1,24.3l5.1-76.2l0.9,0.1l-5.4,80.8L-1334.8-151.8z"/>
					<g id="Group-13" transform="translate(0.000000, 61.893000)">
						<g id="Clip-12">
						</g>
						<path id="Fill-11_1_" class="st14" d="M-1362.6-286.6c0,2.2-1.8,4-4,4s-4-1.8-4-4s1.8-4,4-4S-1362.6-288.8-1362.6-286.6"/>
					</g>
					<path id="Fill-14_1_" class="st14" d="M-1351.5-225.1c0,2.2-1.8,4-4,4s-4-1.8-4-4s1.8-4,4-4
						C-1353.3-229-1351.5-227.2-1351.5-225.1"/>
					<path id="Fill-16_1_" class="st14" d="M-1346.3-228.7c0,2.2-1.8,4-4,4s-4-1.8-4-4s1.8-4,4-4S-1346.3-230.8-1346.3-228.7"/>
					<path id="Fill-18" class="st14" d="M-1341.6-234.2c0,2.2-1.8,4-4,4s-4-1.8-4-4s1.8-4,4-4S-1341.6-236.4-1341.6-234.2"/>
					<path id="Fill-20" class="st14" d="M-1331.7-231.9c0,2.2-1.8,4-4,4s-4-1.8-4-4s1.8-4,4-4S-1331.7-234.1-1331.7-231.9"/>
					<g id="Group-24" transform="translate(213.000000, 0.893000)">
						<g id="Clip-23">
						</g>
						<path id="Fill-22" class="st14" d="M-1537.3-236.6c0,2.2-1.8,4-4,4s-4-1.8-4-4s1.8-4,4-4S-1537.3-238.8-1537.3-236.6"/>
					</g>
					<path id="Fill-25" class="st14" d="M-1305-231.4c0,2.2-1.8,4-4,4s-4-1.8-4-4s1.8-4,4-4S-1305-233.5-1305-231.4"/>
					<path id="Fill-27" class="st14" d="M-1305.9-220.9c0,2.2-1.8,4-4,4s-4-1.8-4-4s1.8-4,4-4
						C-1307.7-224.9-1305.9-223.1-1305.9-220.9"/>
					<path id="Fill-29" class="st14" d="M-1362.3-220c0,2.2-1.8,4-4,4s-4-1.8-4-4s1.8-4,4-4S-1362.3-222.2-1362.3-220"/>
					<path id="Fill-31" class="st14" d="M-1358.3-229.7c0,2.2-1.8,4-4,4s-4-1.8-4-4s1.8-4,4-4
						C-1360.1-233.7-1358.3-231.9-1358.3-229.7"/>
					<path id="Fill-33" class="st14" d="M-1345.2-223.1c0,2.2-1.8,4-4,4s-4-1.8-4-4s1.8-4,4-4C-1347-227-1345.2-225.3-1345.2-223.1"
						/>
					<path id="Fill-35" class="st14" d="M-1311.5-228.3c0,2.2-1.8,4-4,4s-4-1.8-4-4s1.8-4,4-4S-1311.5-230.5-1311.5-228.3"/>
					<path id="Fill-37" class="st14" d="M-1313-219.3c0,2.2-1.8,4-4,4s-4-1.8-4-4s1.8-4,4-4C-1314.7-223.3-1313-221.5-1313-219.3"/>
					<path id="Fill-39" class="st14" d="M-1351.8-219.5c0,2.2-1.8,4-4,4s-4-1.8-4-4s1.8-4,4-4S-1351.8-221.7-1351.8-219.5"/>
					<path id="Fill-41" class="st14" d="M-1339.1-229.9c0,2.2-1.8,4-4,4s-4-1.8-4-4s1.8-4,4-4
						C-1340.8-233.9-1339.1-232.1-1339.1-229.9"/>
					<path id="Fill-43" class="st14" d="M-1322.5-229.6c0,2.2-1.8,4-4,4s-4-1.8-4-4s1.8-4,4-4S-1322.5-231.7-1322.5-229.6"/>
					<path id="Fill-45_1_" class="st14" d="M-1311.3-234.6c0,2.2-1.8,4-4,4s-4-1.8-4-4s1.8-4,4-4
						C-1313.1-238.6-1311.3-236.8-1311.3-234.6"/>
					<path id="Fill-47_1_" class="st14" d="M-1307.4-215.4c0,2.2-1.8,4-4,4s-4-1.8-4-4s1.8-4,4-4S-1307.4-217.5-1307.4-215.4"/>
					<path id="Fill-49" class="st16" d="M-1351.8-173.6l0.2,30.4c0,0-14.4,11.7-13.3,21.8s16.5,24.8,16.5,24.8l25-0.2
						c0,0,16.7-14.7,16.3-24c-0.4-9.4-13-21.8-13-21.8l-0.2-30.6L-1351.8-173.6z"/>
				</g>
				<g id="SCALABLE_2_">
					<rect id="Rectangle_2_" x="-1315.6" y="-129.9" class="st6" width="89.6" height="167.4"/>
				</g>
			</g>
			<g id="Tall-Vase-Plant_x2F_Plant-2" transform="translate(4012.000000, 650.000000)">
				<g id="Tall-Vase-Plant-3" transform="translate(0.000000, 130.000000)">
					<path id="Fill-29_1_" class="st13" d="M-3538.6-486.2c0,0,69.3-13.8,94.3-70.2c25.1-56.4-20.3-52.1-49.5-23.6
						C-3523.1-551.4-3536.7-519.5-3538.6-486.2"/>
					<path id="Fill-30" class="st15" d="M-3554.4-413.6c0-0.1-0.6-8.9,1.6-23.2c2-13.1,6.7-33.7,17.9-57.2
						c11.3-23.5,23.7-41.5,32.1-52.4c9.1-11.9,15.7-18.3,15.7-18.3l1,1c-0.1,0.1-6.6,6.4-15.6,18.2c-8.4,10.9-20.7,28.8-31.9,52.1
						c-11.2,23.3-15.9,43.8-17.8,56.8c-2.1,14.1-1.6,22.9-1.5,22.9L-3554.4-413.6z"/>
					<path id="Fill-31_1_" class="st17" d="M-3554.9-540.6c0,0,60.9-29.9,65.8-90.6c4.9-60.8-36.6-45.9-54.8-11.2
						C-3562-607.8-3564.3-573.5-3554.9-540.6"/>
					<path id="Fill-32" class="st13" d="M-3566-523c0,0-65.6-53.1-56.7-122.1s54.9-38.9,68.2,5.6S-3546.8-556.4-3566-523"/>
					<path id="Fill-33_1_" class="st17" d="M-3572.2-517.8c0,0-82.7-16.8-106.7-82.1c-23.9-65.3,30.8-59.8,63.1-26.6
						C-3583.4-593.2-3570.6-556.2-3572.2-517.8"/>
					<path id="Fill-34" class="st15" d="M-3562.1-404.8c0-0.4-3.3-37.7,0.2-84.5c2.1-27.5,6-52.9,11.8-75.5
						c7.2-28.2,17.2-52,29.9-70.8l1.2,0.8c-12.5,18.6-22.5,42.3-29.6,70.4c-5.7,22.5-9.7,47.8-11.8,75.2
						c-3.5,46.7-0.3,83.9-0.2,84.3L-3562.1-404.8z"/>
					<path id="Fill-35_1_" class="st15" d="M-3590.9-358.6l-1.4-0.4c0.1-0.4,13.2-40.1,19.5-96c3.7-32.8,4.3-64.8,1.9-94.9
						c-3-37.7-10.8-72.6-23.3-103.9l1.3-0.5c12.5,31.4,20.3,66.5,23.4,104.3c2.4,30.3,1.8,62.3-1.9,95.2
						C-3577.7-398.7-3590.8-359-3590.9-358.6"/>
					<path id="Fill-36" class="st12" d="M-3576.2-287h23c22.9,0,41.4-18.5,41.4-41.4v-90.5l0,0h-105.8v90.5
						C-3617.6-305.5-3599-287-3576.2-287z"/>
					<path id="Fill-38" class="st15" d="M-3569.7-500.2c-0.7-11.6-5.3-25-13.7-39.8c-6.8-12-16.1-25-27.8-38.6
						c-18.3-21.4-37.4-38.6-44.7-45c-0.3-0.3-0.5-0.4-0.5-0.5l1-1.1c0.1,0.1,0.3,0.2,0.5,0.5c7.4,6.4,26.5,23.7,44.9,45.2
						c11.7,13.7,21,26.7,27.9,38.8c8.5,15,13.1,28.5,13.9,40.4L-3569.7-500.2z"/>
				</g>
				<g id="SCALABLE_3_">
					<rect id="Rectangle_4_" x="-3684.7" y="-579.3" class="st6" width="247.8" height="422.4"/>
				</g>
			</g>
			<g id="Tall-Vase-Plant_x2F_Plant-3" transform="translate(0.000000, 650.000000)">
				<g id="Tall-Vase-Plant-1" transform="translate(208.000000, 366.000000)">
					<path id="Fill-39_1_" class="st15" d="M-482.6-656.1c0-0.2-1.1-19.3-5.4-43.7c-2.5-14.3-5.6-27.6-9.2-39.4
						c-4.5-14.8-9.9-27.5-15.9-37.7l1.2-0.7c6.1,10.3,11.4,23.1,16,38c3.6,11.9,6.8,25.3,9.3,39.6c4.3,24.4,5.4,43.6,5.4,43.8
						L-482.6-656.1z"/>
					<path id="Fill-40" class="st13" d="M-498-786.6c-0.2,8.8-7.6,15.8-16.4,15.6c-8.8-0.2-15.8-7.6-15.6-16.4s7.6-15.8,16.4-15.6
						C-504.8-802.8-497.8-795.5-498-786.6"/>
					<path id="Fill-41_1_" class="st17" d="M-494.7-767.1c0,0-26.3-52-1.2-93c25.1-41,45.6-9,41.4,22.8S-473.1-782.7-494.7-767.1"/>
					<path id="Fill-42" class="st15" d="M-502.3-757.3l-1-1.1c6-5.3,11.2-13.6,15.6-24.4c3.6-8.8,6.6-19.4,9-31.5
						c3.8-19.1,4.9-36.8,5.2-43.5c0-0.3,0-0.4,0-0.5l1.4,0.1c0,0.1,0,0.2,0,0.5c-0.3,6.8-1.5,24.6-5.3,43.7
						c-2.4,12.2-5.5,22.9-9.1,31.8C-490.8-771.2-496.1-762.8-502.3-757.3"/>
					<path id="Fill-43_1_" class="st15" d="M-459.3-738.9c0,0-27.8,41.8-37.9,94s3.6,75.2,3.6,75.2l11.3-5.6c0,0-6.7-31.3-0.1-67.5
						s33.2-89,33.2-89L-459.3-738.9z"/>
					<path id="Fill-44" class="st10" d="M-478.2-797.9c0,0-10,13.1,4.1,27.8s-4.3,35.6,16,44.5c0,0,10.8,5.6,20.6-8
						c9.8-13.6,11-15.5,24.7-13.4c13.6,2.2,20.4-12.2,20.4-12.2s-16.6-15-46.5-24.3C-468.7-792.7-478.2-797.9-478.2-797.9"/>
					<path id="Fill-45_2_" class="st18" d="M-478.2-797.9c0,0,21.1,20.1,49.6,28.4c28.5,8.2,36.1,10.3,36.1,10.3s-11.6-14.3-35-24.5
						C-450.8-793.9-466.5-791.9-478.2-797.9"/>
					<path id="Fill-46_1_" class="st15" d="M-507.6-705.4c0,0,8.5,28.8,28.6,53.3s35.8,27.1,35.8,27.1l1.8-7.3c0,0-16.9-8.9-31-25.8
						c-14.1-16.9-28.1-49.3-28.1-49.3L-507.6-705.4z"/>
					<path id="Fill-47_2_" class="st9" d="M-543.3-719.1c0,0,2.2,9.6,14.3,8.8s14.7,15.6,26.5,9.7c0,0,6.7-2.8,4.2-12.5
						s-2.9-11,3.3-16.4s2.2-14,2.2-14s-13.2,1.9-28.9,12C-537.4-721.5-543.3-719.1-543.3-719.1"/>
					<path id="Fill-48" class="st8" d="M-543.3-719.1c0,0,17.3-2,32-11.9s18.6-12.6,18.6-12.6s-11-0.1-24.7,6.7
						C-531.1-730.2-536.1-722.2-543.3-719.1"/>
					<path id="Fill-49_1_" class="st9" d="M-507.7-523h47.9c31.8,0,57.6-25.8,57.6-57.6v-93.8l0,0h-163v93.8
						C-565.3-548.8-539.5-523-507.7-523z"/>
				</g>
				<g id="SCALABLE_4_">
					<rect id="Rectangle_5_" x="-394.7" y="-579.3" class="st6" width="247.8" height="422.4"/>
				</g>
			</g>
			<path id="Object-1" class="st7" d="M675.5,493H495c-8.4,0-15.1-6.8-15.1-15.1v-5c0-8.4,6.8-15.1,15.1-15.1h180.5
				c8.4,0,15.1,6.8,15.1,15.1v5C690.6,486.3,683.9,493,675.5,493"/>
			<g id="Sofa" transform="translate(820.838267, 1386.920000)">
				<path id="Fill-50" class="st15" d="M-416.3-1004.7h-607.1c-8.6,0-15.6-7-15.6-15.6V-1168c0-8.6,7-15.6,15.6-15.6h607.1
					c8.6,0,15.6,7,15.6,15.6v147.6C-400.6-1011.7-407.6-1004.7-416.3-1004.7"/>
				<polygon id="Fill-51" class="st17" points="-1000.1,-983.3 -450.7,-983.3 -450.7,-1041.8 -1000.1,-1041.8 				"/>
				<polygon id="Fill-52" class="st15" points="-1018.7,-939.9 -1032.6,-894 -1021.6,-894.7 -988.1,-940 				"/>
				<polygon id="Fill-53" class="st15" points="-421.9,-939.9 -408.1,-894 -419,-894.7 -452.5,-940 				"/>
				<path id="Fill-54" class="st16" d="M-984.8-1110.6c0,0,1.8-2,22.3,2.2c20.5,4.1,51.3-6.4,55.7-3.2c4.4,3.2,3.7,64.4,15.4,80
					c11.7,15.7-29.3-7.2-67.1,8.8c-37.8,16-7.2-47-7.2-47L-984.8-1110.6z"/>
				<path id="Fill-55" class="st8" d="M-1006.7-1128.5c0,0-6.2,48.5,31.5,94.3c37.7,45.8,22.6-35.6,0.8-66.7
					C-996.2-1132-1006.3-1140.7-1006.7-1128.5"/>
				<path id="Fill-56" class="st16" d="M-442.6-1058.7c-0.4-1-1.8-15.7-0.9-34c0.9-18.4-26.3,2.8-64.1-4
					c-21.3-3.8-54.1-11.2-48.2,6.1c6.1,18.1-9.2,49.7,1.6,51.3s67.8-8.8,92.9,2.3C-436.3-1025.8-437.3-1044.2-442.6-1058.7"/>
				<path id="Fill-57" class="st19" d="M-1067.3-1072.6l46.5,127.9c1.3,3.5,4.6,5.9,8.4,5.9l584.1,1.8c3.8,0,7.3-2.4,8.5-6.1
					l45.9-133.6c1.9-5.7-2.1-11.6-8.1-11.9l-43.4-1.9c-3.5-0.2-6.9,1.8-8.4,5l-37.6,75.8c-1.5,3-4.6,5-8,5l-481.7,1
					c-3.5,0-6.7-2-8.1-5.1l-33.9-72.1c-1.5-3.2-4.8-5.3-8.4-5.1l-47.6,1.4C-1065.2-1084.5-1069.4-1078.4-1067.3-1072.6"/>
			</g>
		</g>
		<g id="Pet_x2F_Cat-2" transform="translate(5768.214000, 2258.420000)">
			<g id="Group-63" transform="translate(332.000000, 597.000000)">
				<path id="Fill-1_2_" class="st8" d="M-4335.8-2000.1c0,0,1.9-6.2,10.4-10.8l-0.4,8.5L-4335.8-2000.1z"/>
				<path id="Fill-3_3_" class="st9" d="M-4325.8-2010.2c-6.4,3.6-8.8,8.1-9.4,9.7l9.1-2.1L-4325.8-2010.2z M-4336.3-1999.6l0.2-0.6
					c0.1-0.3,2-6.4,10.6-11l0.6-0.3l-0.4,9.4L-4336.3-1999.6z"/>
				<path id="Fill-5_2_" class="st9" d="M-4330.3-2000.4c0,0,1.4-6.5,4.7-10l-0.3,9.3L-4330.3-2000.4z"/>
				<path id="Fill-7_2_" class="st8" d="M-4323.5-1997.6c0,0,1.9-6.2,10.4-10.8l-0.4,10.9L-4323.5-1997.6z"/>
				<path id="Fill-9_2_" class="st9" d="M-4323-1997.9l9.1,0.1l0.4-9.9C-4320.1-2004.1-4322.4-1999.4-4323-1997.9L-4323-1997.9z
					 M-4313.2-1997.1l-10.8-0.1l0.1-0.4c0.1-0.3,2-6.4,10.6-11l0.6-0.3L-4313.2-1997.1z"/>
				<path id="Fill-11_2_" class="st9" d="M-4318.1-1998c0,0,1.4-6.5,4.7-10l-0.3,9.3L-4318.1-1998z"/>
				<path id="Fill-13_1_" class="st8" d="M-4303.6-1973.2c-1.3,3.7-4.2,4.2-4.2,4.2l-19.7,0.5l-13.7-16.3l-3.3,20.6h-92.8l-1.7-6.6
					c0,0-15.2-43.1,6.4-56.9s43.3-3.9,56.7,11.1c11.6,12.9,30.6,19.2,35.6,20.7c2.3-3.3,6.1-6.4,12.7-6.8
					c14.7-0.9,20.4,10.3,19.8,18.8c0,0-0.3,1.5,1.4,2.9C-4304.6-1979.7-4302.2-1977-4303.6-1973.2"/>
				<path id="Fill-15_1_" class="st8" d="M-4354.2-1989.5c0,0,17.1-0.2,24.3,8.4c7.3,8.6,7.2,8.5,9,8.5s7.3-0.1,7.3-0.1l-1.8,8.8
					l-34.3-0.4L-4354.2-1989.5z"/>
				<path id="Fill-17" class="st20" d="M-4296.4-1963.8h-4.5c-2.5,0-4.5-2-4.5-4.5s2-4.5,4.5-4.5h4.5c2.5,0,4.5,2,4.5,4.5
					C-4292-1965.8-4294-1963.8-4296.4-1963.8"/>
				<path id="Fill-19" class="st9" d="M-4301-1972.3c-2.3,0-4.1,1.8-4.1,4.1s1.8,4.1,4.1,4.1h4.5c2.3,0,4.1-1.8,4.1-4.1
					s-1.8-4.1-4.1-4.1H-4301z M-4296.4-1963.4h-4.5c-2.7,0-4.8-2.2-4.8-4.8c0-2.7,2.2-4.8,4.8-4.8h4.5c2.7,0,4.8,2.2,4.8,4.8
					S-4293.8-1963.4-4296.4-1963.4L-4296.4-1963.4z"/>
				<path id="Fill-21" class="st20" d="M-4298.3-1969.8c0,0,1.4,0.6,1.6,2.2s0.1,3.8,0.1,3.8"/>
				<path id="Fill-23" class="st9" d="M-4296.2-1963.7h-0.7c0,0,0.1-2.2-0.1-3.7c-0.2-1.4-1.4-1.9-1.4-1.9l0.3-0.7
					c0.1,0,1.6,0.7,1.8,2.5C-4296-1966-4296.2-1963.8-4296.2-1963.7"/>
				<path id="Fill-25_1_" class="st8" d="M-4353.4-1989.4c0,0,15.4-0.5,22.4,7s8.1,9.9,11.4,9.6s8.6,0.2,8.6,0.2l-3.2,3"/>
				<path id="Fill-27_1_" class="st9" d="M-4314-1969.3l-0.5-0.5l2.6-2.5c-1.6-0.1-5.3-0.3-7.7-0.1c-2.7,0.2-4.1-1.3-7.7-5.4
					c-1.1-1.2-2.4-2.7-4-4.4c-6.8-7.3-21.9-6.9-22.1-6.9v-0.7c0,0,3.9-0.1,8.6,0.7c4.4,0.8,10.3,2.5,14,6.4c1.6,1.7,2.9,3.2,4,4.4
					c3.6,4,4.8,5.3,7.1,5.1c3.3-0.3,8.4,0.2,8.7,0.2l0.8,0.1L-4314-1969.3z"/>
				<polygon id="Fill-29_2_" class="st9" points="-4330.7,-1978.4 -4330.7,-1979.1 -4319.5,-1979.3 -4329.6,-1985.4 -4329.2,-1986 
					-4317,-1978.6 				"/>
				<path id="Fill-31_2_" class="st9" d="M-4327.5-1973.2c0,0,0.1-0.1,0.1-0.2h-0.7c0-0.3,0-0.3,4.9-3.1c2.4-1.3,4.7-2.6,4.8-2.7
					l0.3,0.6C-4321.5-1976.7-4327.1-1973.6-4327.5-1973.2"/>
				<path id="Fill-33_2_" class="st9" d="M-4304.7-1971c-2.6,3.7-8.6-1.2-8.6-1.2s-0.9-1-0.1-3.4s3.8-2.7,3.8-2.7l5.6,0.1l-1.6,1
					l1.9,0.2C-4303.6-1977-4302.1-1974.8-4304.7-1971"/>
				<path id="Fill-35_2_" class="st20" d="M-4310-1963.9h-5.3c-2.5,0-4.5-2-4.5-4.5s2-4.5,4.5-4.5h5.3c2.5,0,4.5,2,4.5,4.5
					S-4307.6-1963.9-4310-1963.9"/>
				<path id="Fill-37_1_" class="st9" d="M-4315.4-1972.5c-2.3,0-4.1,1.8-4.1,4.1c0,2.3,1.8,4.1,4.1,4.1h5.3c2.3,0,4.1-1.8,4.1-4.1
					c0-2.3-1.8-4.1-4.1-4.1H-4315.4z M-4310-1963.5h-5.3c-2.7,0-4.8-2.2-4.8-4.8s2.2-4.8,4.8-4.8h5.3c2.7,0,4.8,2.2,4.8,4.8
					S-4307.4-1963.5-4310-1963.5L-4310-1963.5z"/>
				<path id="Fill-39_2_" class="st20" d="M-4312.2-1969.9c0,0,1.5,0.6,1.7,2.2c0.3,1.6,0.1,3.8,0.1,3.8"/>
				<path id="Fill-41_2_" class="st9" d="M-4310-1963.9h-0.7c0,0,0.1-2.2-0.1-3.7c-0.2-1.4-1.5-1.9-1.5-1.9l0.3-0.7
					c0.1,0,1.7,0.7,1.9,2.5C-4309.9-1966.1-4310-1964-4310-1963.9"/>
				<path id="Fill-43_2_" class="st21" d="M-4307.7-1978.3c0,0-0.3,3.6,4.4,4.3c0,0,0.5-1.1,0-2.7s-0.6-1.5-0.6-1.5L-4307.7-1978.3z
					"/>
				<path id="Fill-45_3_" class="st9" d="M-4365.2-1972.6c-0.1,0-8.1-0.1-12-0.4c-2.2-0.1-5.7-6.2-11.2-16.2
					c-3.7-6.7-7.5-13.6-10.7-17.3c-6.9-8.1-24.6-9.7-24.8-9.7l0.1-0.7c0.1,0,4.6,0.4,9.9,1.8c4.9,1.3,11.6,3.8,15.4,8.1
					c3.2,3.7,7,10.7,10.7,17.4c4.3,7.7,8.7,15.7,10.7,15.8c3.9,0.3,11.9,0.4,11.9,0.4V-1972.6z"/>
				<path id="Fill-47_3_" class="st20" d="M-4380-1974.4c-2.1,2.2-5.5,3.9-9.3,5.3l-5-11.8c2.8-0.8,4.5-1.4,4.5-1.4
					c0.1-3.6,4-5.2,4-5.2C-4381.2-1990.3-4371.3-1983.2-4380-1974.4"/>
				<path id="Fill-49_2_" class="st9" d="M-4393.8-1980.7l4.7,11.2c4-1.5,7-3.2,8.8-5.1l0,0c5.1-5.2,3.1-9,2.1-10.4
					c-1.9-2.4-5.3-3.4-7.5-2.2l0,0c0,0-3.7,1.6-3.8,4.9v0.3l-0.2,0.1C-4389.7-1982-4391.2-1981.5-4393.8-1980.7L-4393.8-1980.7z
					 M-4389.5-1968.7l-5.3-12.5l0.4-0.1c2.2-0.6,3.7-1.1,4.2-1.3c0.1-1.5,0.8-2.8,2.1-4c1-0.8,1.9-1.3,2-1.3
					c2.4-1.4,6.3-0.3,8.4,2.4c2.5,3.2,1.7,7.5-2.1,11.4l0,0c-2,2-5.2,3.8-9.4,5.3L-4389.5-1968.7z"/>
				<path id="Fill-51_1_" class="st8" d="M-4389.3-1969.1c-11.7,4.2-27.9,4.9-27.9,4.9l-31.9-0.1c0,0-3-0.9-3-5.3
					c0-4.3,4.5-5.4,4.5-5.4s13.8-0.9,28.9-1.7c9.8-0.5,19.1-2.8,24.4-4.3L-4389.3-1969.1z"/>
				<path id="Fill-53_1_" class="st9" d="M-4449-1964.7l31.9,0.1c0.5,0,16-0.8,27.4-4.8l-4.7-11.2c-4.9,1.4-14.3,3.7-24.2,4.2
					c-14.6,0.8-28.1,1.7-28.9,1.7c-0.4,0.1-4.2,1.2-4.2,5C-4451.7-1965.8-4449.4-1964.8-4449-1964.7L-4449-1964.7z M-4417.2-1963.9
					l-32-0.1h-0.1c0,0-0.8-0.3-1.7-1.1c-0.7-0.8-1.6-2.1-1.6-4.5c0-4.6,4.7-5.7,4.8-5.7h0.1c0.1,0,14-0.9,28.9-1.7
					c10-0.6,19.5-2.9,24.3-4.3l0.3-0.1l5.3,12.5l-0.4,0.1C-4400.8-1964.7-4417-1963.9-4417.2-1963.9L-4417.2-1963.9z"/>
				<path id="Fill-55_1_" class="st20" d="M-4363.8-1964.7h-5.3c-2.5,0-4.5-2-4.5-4.5s2-4.5,4.5-4.5h5.3c2.5,0,4.5,2,4.5,4.5
					S-4361.3-1964.7-4363.8-1964.7"/>
				<path id="Fill-57_1_" class="st9" d="M-4369.1-1973.3c-2.3,0-4.1,1.8-4.1,4.1s1.8,4.1,4.1,4.1h5.3c2.3,0,4.1-1.8,4.1-4.1
					s-1.8-4.1-4.1-4.1H-4369.1z M-4363.8-1964.3h-5.3c-2.7,0-4.8-2.2-4.8-4.8c0-2.7,2.2-4.8,4.8-4.8h5.3c2.7,0,4.8,2.2,4.8,4.8
					S-4361.1-1964.3-4363.8-1964.3L-4363.8-1964.3z"/>
				<path id="Fill-59" class="st20" d="M-4366-1970.7c0,0,1.5,0.6,1.7,2.2c0.3,1.6,0.1,3.8,0.1,3.8"/>
				<path id="Fill-61" class="st9" d="M-4363.8-1964.7h-0.7c0,0,0.1-2.2-0.1-3.7c-0.2-1.4-1.5-1.9-1.5-1.9l0.3-0.7
					c0.1,0,1.7,0.7,1.9,2.5C-4363.7-1966.9-4363.8-1964.8-4363.8-1964.7"/>
			</g>
			<g id="SCALABLE_5_">
				<rect id="Rectangle_6_" x="-4180.2" y="-1544.9" class="st6" width="280.4" height="196.3"/>
			</g>
		</g>
		<g id="Master_x2F_Character_x2F_Sitting-On-Floor" transform="translate(3128.000000, 293.000000)" class="st1">
			<g id="Upper-Body_x2F_Coffee-and-Phone" transform="translate(911.000000, 1121.000000)" class="st22">
				<path id="Neck" class="st23" d="M-2631.7-812.8c0,0-0.7,14.6-9.2,19.8c-7.7,4.7,8.6,31.8,26.3,30.2c9.6-0.9,11.9-27.3,11.9-27.3
					s-7.8-1.5-4.9-13.4L-2631.7-812.8z"/>
				<path id="Head" class="st23" d="M-2617.6-798c-11.4-1.4-19.7-8.9-20.8-21.3c-3.3,0.5-4.1-8.1-3.2-10.9c0.9-2.8,3.9-1.2,3.9-1.2
					c0.2-0.4,0.3-0.9,0.4-1.4c5-20.5,19-19.7,19-19.7c25.7,1.3,19.7,27.6,18.2,34.5C-2601.5-810.9-2606.6-796.6-2617.6-798z"/>
				<g id="Group-31" transform="translate(252.000000, 332.000000)">
					<path id="Path" class="st23" d="M-2946.5-1080.7c-20.3,32.2-26.7,51.8-19.2,58.6s21.8-1.5,42.9-25.1c-1.1-5.3-3.9-11-8.4-17.3
						C-2935.7-1070.7-2940.8-1076.1-2946.5-1080.7z"/>
					<g id="Group-3" transform="translate(61.000000, 0.170000)">
						<path id="Fill-1_3_" class="st13" d="M-2879.3-1058l-14.8-1.7c0,0,3.8,51.1,2.4,51.1c-0.8,0-18.6,9.7-43.6,9.7
							c-19.2,0-42.7-6.4-43.7-6.4c-0.1,0-0.2-0.1-0.4-0.2c0.3-3.5,0.6-9.8,0.8-16.6c0.2-4.8,0.4-10,0.6-14.7
							c0.2-4.4,0.4-8.5,0.7-11.7c1.2-13.8,0.4-26.5,0.4-26.5l-5.7,15.4l-36-13.1c0,0,12-17.5,26.4-32.8c14.2-15.1,37.1-19,37.4-19
							l0,0c0,0-1.3,20.9,20.3,22.5c18,1.3,18.9-20.2,18.9-20.2s21,5.5,27,10.6s32.6,40.2,32.6,41.1
							C-2856.2-1069.8-2879.3-1058-2879.3-1058z"/>
					</g>
					<path id="Fill-4_2_" class="st13" d="M-2917-1036.8c-0.2,4.8-0.4,9.9-0.6,14.7C-2917.7-1025.4-2917.5-1030.1-2917-1036.8"/>
					<path id="Fill-6_2_" class="st12" d="M-2842.4-1051.8l-18.9,1.5c-1.1,0.1-2.1-0.8-2.2-1.9l-3-37.1c-0.1-1.1,0.8-2.1,1.9-2.2
						l18.9-1.5c1.1-0.1,2.1,0.8,2.2,1.9l3,37.1C-2840.4-1052.9-2841.3-1051.9-2842.4-1051.8"/>
					<path id="Fill-8_1_" class="st24" d="M-2840.5-1052.9l-18.9,1.5c-1.1,0.1-2.1-0.7-2.2-1.9l-2.9-35.8c-0.1-1.1,0.7-2.1,1.9-2.2
						l18.9-1.5c1.1-0.1,2.1,0.7,2.2,1.9l2.9,35.8C-2838.6-1053.9-2839.4-1053-2840.5-1052.9"/>
					<path id="Fill-10_1_" class="st12" d="M-2843.7-1088.7c0.1,1.1-0.7,2-1.8,2.1s-2-0.7-2.1-1.8c-0.1-1.1,0.7-2,1.8-2.1
						C-2844.7-1090.5-2843.8-1089.7-2843.7-1088.7"/>
					<g id="Group-14" transform="translate(597.000000, 271.170000)">
						<path id="Fill-12_1_" class="st23" d="M-3444.4-1325.4c0,0-9.5,2.1-9.5-1.2c0,0,6.4-2.7,7.9-2.6s8.2,0.9,8.2,0.9l-8.3-4.1
							l-8.3,2.6c0,0-1.9,0.1-2.7-1.2c-0.8-1.3,0.1-2.1,0.1-2.1l10.8-3.6c0,0,0.4-1.2-2.4-1.3c-2.7-0.1-8.7-0.5-8.7-0.5
							s-1.3-1.2-0.7-3.2s4-1.3,4-1.3s-1.9-1.8,1-3.8c0,0,8.7,0.2,11.9,2.2s25.2,15.5,25.2,15.5l17.1-9
							c21.7,26.5,27.4,42.3,17.3,47.2C-3391.7-1286-3412.7-1297.5-3444.4-1325.4z"/>
					</g>
					<path id="Fill-15_2_" class="st25" d="M-2837.9-1066.1l-8.6-4.9l-10.7-1.2l0.1-0.7l10.8,1.2c0.1,0,0.1,0,0.1,0l8.7,4.9
						L-2837.9-1066.1z"/>
					<polygon id="Fill-17_1_" class="st25" points="-2803.4,-1048.1 -2824,-1061 -2823.6,-1061.6 -2803,-1048.7 					"/>
					<polygon id="Fill-17_2_" class="st25" points="-2932.3,-1062.9 -2953,-1050.1 -2953.3,-1050.7 -2932.7,-1063.5 					"/>
					<path id="Fill-19_1_" class="st25" d="M-2838.6-1062.2c-0.1,0-5.5-3.7-6.9-4.3c-1.1-0.4-3.2,0.4-4,0.7l-0.3-0.6
						c0.1-0.1,3-1.4,4.5-0.7c1.5,0.6,6.7,4.2,7,4.3L-2838.6-1062.2z"/>
					<polygon id="Fill-21_1_" class="st23" points="-2840.5,-1076.4 -2835.2,-1068.3 -2840.2,-1071.5 					"/>
					<polygon id="Fill-23_1_" class="st25" points="-2835.4,-1068 -2840.4,-1071.1 -2840,-1071.8 -2835,-1068.6 					"/>
					<path id="Fill-27_2_" class="st11" d="M-2905.9-1048.2l-6.3-0.1c-6.7-0.1-11.9-5.6-11.8-12.3l0.4-20.2l28.8,0.6l-0.4,21.8
						C-2895.4-1052.6-2900.2-1048.1-2905.9-1048.2"/>
				</g>
				<g id="Group_1_" transform="translate(455.000000, 614.711100)">
					<path id="Fill-12_2_" class="st23" d="M-3127.3-1356.5c0,0-2.6,1.7-3.4,2.7c-0.8,1-0.1,1.2-1.9,3.1c-1.9,1.9-5.2,6.9,0.6,14.4
						s7.8,6.9,10.2,5.6s2.7-2.2,7.2-2.7s8.9-4.9,8.8-6l-0.1-1.1c0,0,4.2-1.6,3.9-3.3c-0.3-1.8-1.5-1.6-1.5-1.6s0.8-0.8,0.2-2.3
						s-3.7-1.2-7.2-0.7s-12.6,2.3-13.2,1.9c-0.6-0.4-0.4-0.9,1.8-1.2c2.1-0.3,10.8-0.4,10.8-2.8s-2.6-2.9-7.6-2.8s-5.9-0.2-7.1,0.3
						l-1.2,0.5L-3127.3-1356.5z"/>
					<path id="Fill-14_2_" class="st26" d="M-3103.4-1345.5c0,0,0.3-0.2-1.7,0.6c-0.7,0.3-1.7,0.6-3.2,0.8c-5.4,1-13.8,2.9-16.4,3.2
						c-2.6,0.4-0.5,0.9,5.5-0.3c5.9-1.2,13-2.8,13.3-2.9C-3105.3-1344.2-3103.7-1344.7-3103.4-1345.5"/>
					<path id="Fill-16_2_" class="st26" d="M-3107.8-1340c0,0-4.4,1.5-6.6,2.1c-2.3,0.6-4,1.3-4.5,0.6c-0.5-0.7-1-0.9-1-0.9
						l-0.7,0.8c0,0,0.1,0.9-0.3,1c-0.7,0.2-2.1,0.5-2.1,0.5s0,0.5,4.3-0.4c1.1-0.2,3.1-0.5,4.3-0.9c1.2-0.3,5.3-1.4,5.9-1.9
						C-3107.9-1339.5-3107.8-1340-3107.8-1340"/>
					<path id="Fill-18_1_" class="st13" d="M-3121.4-1340.4c0,0-0.1,3.7,1,3.7c1.1-0.1,1.4-0.1,1.6-0.3c0.2-0.3-0.3-1.2-0.3-2.2
						s0-1.5-0.8-1.4C-3120.8-1340.6-3121.3-1340.6-3121.4-1340.4"/>
				</g>
				<g id="SCALABLE_6_">
					<rect id="Rectangle_7_" x="-2762.2" y="-852.4" class="st6" width="284" height="207.3"/>
				</g>
			</g>
			
				<g id="Lower-Body_x2F_Sitting-on-Floor_x2F_Spread-Out-1" transform="translate(1165.000000, 2062.000000) scale(-1, 1) translate(-1165.000000, -2062.000000) translate(0.000000, 1624.000000)" class="st22">
				<g id="Lower-Body" transform="translate(384.000000, 0.000000)">
					<polygon id="Fill-1_4_" class="st27" points="3903.6,-1150.1 3898.5,-1131.6 3907.7,-1128.5 3913.5,-1146.7 					"/>
					<polygon id="Fill-2_2_" class="st28" points="3912.9,-1148 3906.4,-1127.5 3915.8,-1124.4 3922.6,-1144.4 					"/>
					<g id="Group-44" transform="translate(0.000000, 0.494000)">
						<path id="Fill-3_4_" class="st29" d="M3923.4-1147c0,0-1.4,0-3.2,0.9s-11.2,13.3-5.8,21.1c0,0,0.9,0.5,2,0.7s3.1,3.4,6.5,5.2
							c0,0-0.7-2.3,2-9.4s18.2-44.3,25.6-44.6c0,0-2.9-2.3-11.7,7.7C3930.3-1155.9,3923.4-1147,3923.4-1147"/>
						<path id="Fill-5_3_" class="st28" d="M3922.8-1119.1c0,0,3.1,5.2,7.9,4.3s6.3-5.3,7.9-9.1c1.6-3.7,18.2-44.6,18.2-44.6
							s-1.8-5.9-6.8-4.7c-5.8,1.3-11.2,13.6-11.2,13.6l-15.7,32.4C3923.2-1127.2,3921.6-1122.6,3922.8-1119.1"/>
						<g id="Group-9_1_" transform="translate(1757.000000, 530.000000)">
							<g id="Clip-8">
							</g>
							<path id="Fill-7_3_" class="st29" d="M2170.1-1650.9l20-42.8c0,0,4.1-7.4,8.3-5.9c4.1,1.4,0.9,8.1-0.5,13.3
								c-1.4,5.2-15.8,35.8-19.6,38.7C2175.6-1645.7,2170.3-1649,2170.1-1650.9"/>
						</g>
						<path id="Fill-10_2_" class="st30" d="M3916.3-1124.4c0,0-2-5.2,0.4-11.5c2.3-6.3,6.7-11.2,6.7-11.2s-4.6-1.4-8.4,7.7
							c-3.9,9.2-3.1,14,1.4,15.3"/>
						<path id="Stroke-12" class="st31" d="M3917.8-1129.4c0,0-0.6-5.2,2.1-6.7c2.7-1.5,6.8-2.2,7.4-4.4s0.2-5.4,0.2-5.4"/>
						<path id="Fill-14_3_" class="st28" d="M3694.8-1125.7c0,0,2,7.9,2.9,9.3s17.8,9,23.2,8.5s14.5-4,15.7-6.5
							c1.2-2.6-0.4-10.6-2.1-12S3694.8-1125.7,3694.8-1125.7"/>
						<g id="Group-18" transform="translate(0.000000, 332.000000)">
							<g id="Clip-17">
							</g>
							<path id="Fill-16_3_" class="st7" d="M3613.8-1526.3c0,0-13.3,49.9,16.9,57.7c30.2,7.7,64,0.7,101.1-11.3
								c30.4-9.9,29.2-21.2,67.8-10.1c27.7,8,99,27.9,99,27.9l7.4-21.6c0,0-106.4-54.9-148.6-53.6c-15.8,0.5-65.7,10.6-65.7,10.6
								L3613.8-1526.3z"/>
						</g>
						<g id="Group-21" transform="translate(37.000000, 0.000000)">
							<g id="Clip-20">
							</g>
							<path id="Fill-19_2_" class="st7" d="M3580.7-1188.1c0,0,33.2-68.7,45.8-74.8c12.6-6.1,17.5,1.3,18.5,9.4
								c1.1,8.1,24.5,85.1,24.5,85.1l-27.9,7.4L3580.7-1188.1z"/>
						</g>
						<polygon id="Stroke-22" points="3661.7,-1199.4 3678.9,-1163.4 3678.2,-1163.1 3661,-1199.1 						"/>
						<path id="Fill-24" class="st32" d="M3702.5-1168.4l2.1,6.9c-8.4,0-15,3.8-16.8,4.7l-1.9-6.8L3702.5-1168.4z"/>
						<path id="Fill-26" class="st28" d="M3709.2-1148.4l-18.3,4.6l-3.8-13.8c0,0,0.1,0,0.4-0.2c1.8-0.9,9-4.3,17.4-4.3"/>
						<path id="Fill-28" class="st33" d="M3703.2-1121.1c0,0,12.8,5.3,21.5,1.9c8.7-3.3,10.7-5.6,10.7-5.8s-14.4-12.6-17.3-13.9
							c-2.8-1.2-10.1-6.5-13-1.9s-7.2,8.1-6.7,11.5S3703.2-1121.1,3703.2-1121.1"/>
						<path id="Fill-30_1_" class="st34" d="M3691.3-1141.3c0,0,0.7,11.9,3.9,17.4l8.4,3.2c0,0-2.4-6.4-0.4-8.9s3.1-5.3,3.1-7
							c0-1.6,7.3-3.5,7.3-3.5s1.2,2.7,3.4,2.7s13.3,8.1,13.3,8.1s-2.7-2.9-5.6-5.9s-12.9-12.8-12.9-12.8L3691.3-1141.3z"/>
						<path id="Fill-32_1_" class="st35" d="M3690.4-1146.1c0,0-1.8,1.9-0.6,3.7s5,0.7,8.6-0.3c3.7-1,12.4-3.2,13-4.4
							c0.6-1.3-0.5-3.9-2.9-4.5c0,0,0.7,2.2-0.3,2.8c-1,0.6-16.2,4.9-16.9,4.5C3690.7-1144.7,3690.4-1146.1,3690.4-1146.1"/>
						<path id="Fill-34_1_" class="st11" d="M3703.4-1136.5c0,0,4.8-5.1,10-3.7c0,0,1.7,0.3,1.1-0.8c-0.6-1.2-1.5-1.1-1.5-1.1
							s0.1-1.1-0.8-1.3c0,0,0.3-1.2-1-1.2c0,0-0.4-2.7-3.2-1.3c-2.8,1.4-8.3,2.4-7.6,3.9s1.1,0.9,1.1,0.9s-0.3,1,0.4,1.9
							s0.6,0.4,0.6,0.4S3701.6-1137.1,3703.4-1136.5"/>
						<path id="Stroke-36" class="st36" d="M3700.8-1140.9c0,0,1.1-1,2.8-1.4"/>
						<path id="Stroke-38" class="st36" d="M3711.8-1145.1c0,0-2,0.3-3.1,0.9"/>
						<path id="Stroke-40" class="st36" d="M3713.9-1142.3c0,0-2.7-0.1-3.9,0.4"/>
						<path id="Stroke-42" class="st36" d="M3701.7-1138.4c0,0,1.7-1.5,4.1-2.2"/>
					</g>
				</g>
				<g id="SCALABLE_7_">
					<polygon id="Rectangle_8_" class="st6" points="3925.8,-1107.2 4345.1,-1107.2 4345.1,-1107.2 					"/>
				</g>
			</g>
			<g id="Expression_x2F_Meditating" transform="translate(1633.000000, 1204.000000)" class="st22">
				<g id="Group-124" transform="translate(25.000000, 31.000000)">
					<path id="Stroke-110" d="M-3355.9-938.4c0.2-0.2,0.5-0.2,0.7,0l0.1,0.1c0.1,0.1,0.1,0.1,0.2,0.2c0.3,0.2,0.5,0.4,0.8,0.6
						c0.8,0.5,1.6,0.8,2.4,0.8c0.8,0,1.5-0.2,2.1-0.7c0.2-0.1,0.4-0.3,0.6-0.5l0.1-0.1l0.1-0.1l0,0c0.2-0.2,0.5-0.3,0.8-0.1
						s0.3,0.5,0.1,0.8l0,0c-0.1,0.1-0.1,0.1-0.2,0.3c-0.2,0.2-0.4,0.4-0.7,0.6c-0.8,0.6-1.7,0.9-2.8,0.9s-2-0.4-3-1
						c-0.3-0.2-0.6-0.4-0.9-0.7l-0.1-0.1c-0.1-0.1-0.2-0.2-0.3-0.3C-3356.1-937.8-3356.1-938.1-3355.9-938.4z"/>
					<path id="Stroke-112" d="M-3367.8-924.7c0.1-0.3,0.5-0.3,0.7-0.2l0.1,0.1l0.1,0.1c0.1,0,0.1,0.1,0.2,0.1
						c0.3,0.2,0.7,0.3,1.2,0.5c1.6,0.6,3.3,0.9,5.1,0.7c0.3,0,0.6,0.2,0.6,0.5s-0.2,0.6-0.5,0.6c-1.9,0.2-3.9-0.1-5.6-0.7
						c-0.5-0.2-0.9-0.4-1.3-0.6l-0.1-0.1c-0.2-0.1-0.3-0.1-0.3-0.2C-3367.8-924.1-3367.9-924.4-3367.8-924.7z"/>
					<path id="Stroke-114" d="M-3356.9-942l0.7,0.2l-0.1,0.2c-0.1,0.2-0.1,0.4-0.2,0.6c-0.2,0.6-0.4,1.3-0.5,2
						c-0.2,0.8-0.4,1.5-0.5,2.2v0.2c-0.3,1.8-0.4,3.2-0.1,4l0,0c1.6,4-0.6,6-5.1,4.6h-0.1l0.2-0.7c4.1,1.3,5.7-0.2,4.4-3.6
						c-0.4-0.9-0.3-2.5,0.1-4.6c0.1-0.7,0.3-1.5,0.5-2.3c0.2-0.6,0.3-1.3,0.5-1.8l0.1-0.2c0-0.1,0.1-0.3,0.1-0.4l0.1-0.3
						L-3356.9-942z"/>
					<path id="Stroke-116" d="M-3370.3-945.8c0.5-0.1,1.1-0.1,1.5-0.1c0.6,0.1,1.5,0.2,2.6,0.5c0.3,0.1,0.6,0.2,1,0.3
						c0.6,0.2,1.2,0.3,1.7,0.5l0.4,0.1l0.4,0.1c0.5,0.2,0.8,0.7,0.6,1.3c-0.2,0.5-0.7,0.8-1.2,0.6h-0.1l-0.2-0.1
						c-0.1-0.1-0.3-0.1-0.5-0.2c-0.5-0.2-1.1-0.3-1.6-0.5c-0.3-0.1-0.6-0.2-1-0.3l-0.2-0.1c-0.8-0.2-1.5-0.4-2-0.4
						c-0.3,0-0.7,0-1.1,0.1c-0.5,0.1-1.1,0.2-1.6,0.3c-0.3,0.1-0.6,0.2-0.8,0.3h-0.1c-0.1,0-0.1,0.1-0.2,0.1l-0.1,0.1
						c-0.5,0.2-1.1-0.1-1.3-0.6s0.1-1.1,0.6-1.3h0.1c0.1,0,0.2-0.1,0.3-0.1c0.3-0.1,0.7-0.2,1-0.3
						C-3371.6-945.6-3370.9-945.7-3370.3-945.8z"/>
					<path id="Stroke-118" d="M-3352.8-942.9h0.2c1,0,1.8,0,2.4,0.1c0.3,0.1,0.7,0.1,1,0.3c0.5,0.2,1.1,0.4,1.6,0.8
						c0.4,0.2,0.7,0.4,1,0.6l0.1,0.1c0.2,0.1,0.4,0.3,0.5,0.3c0.4,0.3,0.5,0.9,0.2,1.3c-0.3,0.4-0.9,0.5-1.3,0.2l-0.1-0.1l-0.1-0.1
						c-0.1,0-0.1-0.1-0.2-0.1c-0.3-0.2-0.7-0.4-1-0.6c-0.5-0.3-0.9-0.5-1.3-0.6c-0.3-0.1-0.5-0.2-0.7-0.2c-0.5-0.1-1.3-0.1-2.2-0.1
						c-0.6,0-1.2,0.1-1.9,0.1h-0.3c-0.2,0-0.4,0-0.5,0.1l-0.5,0.1c-0.5,0.1-1-0.3-1.1-0.9c-0.1-0.5,0.3-1,0.8-1.1h0.1h0.2h0.1
						c0.3,0,0.6-0.1,1-0.1C-3354.1-942.8-3353.4-942.9-3352.8-942.9z"/>
					<path id="Stroke-120" d="M-3371.5-940.1c0.2-0.2,0.5-0.2,0.7,0l0.1,0.1l0.1,0.1l0.1,0.1c0.3,0.2,0.5,0.4,0.8,0.6
						c0.8,0.5,1.6,0.8,2.4,0.8c0.8,0,1.5-0.2,2.1-0.7c0.2-0.1,0.4-0.3,0.6-0.5l0.1-0.1l0.1-0.1l0,0c0.2-0.2,0.5-0.3,0.8-0.1
						s0.3,0.5,0.1,0.8l0,0c-0.1,0.1-0.1,0.1-0.2,0.3c-0.2,0.2-0.4,0.4-0.7,0.6c-0.8,0.6-1.7,0.9-2.8,0.9s-2-0.4-3-1
						c-0.3-0.2-0.6-0.4-0.9-0.7l-0.1-0.1c-0.1-0.1-0.2-0.2-0.3-0.3C-3371.7-939.6-3371.7-939.9-3371.5-940.1z"/>
					<path id="Stroke-122" class="st37" d="M-3374.7-914.5l0.4-0.6l0.1,0.1l0.1,0.1c0.2,0.1,0.4,0.2,0.6,0.3l0.1,0.1
						c0.8,0.4,1.6,0.7,2.5,1.1c2.1,0.8,4.1,1.3,6,1.5c0.9,0.1,1.7,0.1,2.4,0h0.1l0.1,0.7c-0.9,0.1-1.8,0.1-2.7,0
						c-2-0.2-4.1-0.7-6.2-1.6c-0.9-0.4-1.8-0.7-2.6-1.1l-0.3-0.1c-0.1-0.1-0.2-0.1-0.4-0.2l-0.2-0.1L-3374.7-914.5z"/>
				</g>
				<g id="SCALABLE_8_">
					<rect id="Rectangle_9_" x="-3354.2" y="-920.5" class="st6" width="36.4" height="40.3"/>
				</g>
			</g>
			<g id="Hairstyle_x2F_Fancy-Bun" transform="translate(1142.000000, 877.000000)" class="st22">
				<g id="Group-9_2_" transform="translate(401.000000, 115.000000)">
					<path id="Fill-1_5_" class="st38" d="M-3269.8-702c0,0,1.6-6.3,14.5-12.3c10.6-5,22.7,2.7,23.9,4.7c0.9,1.5,1.8-17.1-17.8-21.4
						c-16.6-3.7-30.1,14.3-24.6,30.3C-3273.7-700.8-3273-702.6-3269.8-702"/>
					<g id="Group-5" transform="translate(0.000000, 0.027000)">
						<g id="Clip-4">
						</g>
						<path id="Fill-3_5_" class="st38" d="M-3252.4-742c4.1,5.6,1.5,14.4-5.7,19.6c-7.2,5.2-16.3,4.8-20.4-0.8
							c-4.1-5.6-1.5-14.4,5.7-19.6C-3265.6-748-3256.5-747.6-3252.4-742"/>
					</g>
					<g id="Group-8_1_" transform="translate(54.000000, 172.027000)">
						<g id="Clip-7">
						</g>
						<path id="Fill-6_3_" class="st38" d="M-3321.3-884.2c0,0-5,11.7-1,19.2s-5.2,21.7-1.2,28.5c0,0-0.3-5.6,3.4-12.8
							c3.6-7.2,5.3-10.1,3-15.7c-2.3-5.5,4.4-20.2,8.3-22.6L-3321.3-884.2z"/>
					</g>
				</g>
				<g id="SCALABLE_9_">
					<rect id="Rectangle_10_" x="-2951.6" y="-652.3" class="st6" width="148.6" height="134.4"/>
				</g>
			</g>
			<g id="Accessories_x2F_Dark-Shades-and-Earring" transform="translate(1586.000000, 1237.000000)" class="st22">
				<g id="Group-18_1_" transform="translate(19.000000, -3.000000)">
					<path id="Fill-1_6_" class="st21" d="M-3309.7-938.4c0,3.3-2.7,6.1-6.1,6.1c-3.3,0-6.1-2.7-6.1-6.1c0-3.3,2.7-6.1,6.1-6.1
						C-3312.4-944.4-3309.7-941.7-3309.7-938.4"/>
					<path id="Fill-3_6_" class="st21" d="M-3315.8-943.8c-3,0-5.4,2.4-5.4,5.4s2.4,5.4,5.4,5.4s5.4-2.4,5.4-5.4
						C-3310.4-941.4-3312.8-943.8-3315.8-943.8 M-3315.8-931.7c-3.7,0-6.7-3-6.7-6.7s3-6.7,6.7-6.7s6.7,3,6.7,6.7
						S-3312.1-931.7-3315.8-931.7"/>
					<path id="Fill-5_4_" class="st21" d="M-3292.8-936.7c0,3.3-2.7,6.1-6.1,6.1s-6.1-2.7-6.1-6.1c0-3.3,2.7-6.1,6.1-6.1
						S-3292.8-940.1-3292.8-936.7"/>
					<g id="Group-9_3_" transform="translate(142.000000, 8.500000)">
						<g id="Clip-8_1_">
						</g>
						<path id="Fill-7_4_" class="st21" d="M-3440.9-950.7c-3,0-5.4,2.4-5.4,5.4s2.4,5.4,5.4,5.4s5.4-2.4,5.4-5.4
							C-3435.5-948.2-3437.9-950.7-3440.9-950.7 M-3440.9-938.5c-3.7,0-6.7-3-6.7-6.7s3-6.7,6.7-6.7s6.7,3,6.7,6.7
							S-3437.2-938.5-3440.9-938.5"/>
					</g>
					<line id="Fill-10_3_" class="st39" x1="-3331" y1="-943" x2="-3322" y2="-939.4"/>
					<polygon id="Fill-12_3_" class="st21" points="-3322.3,-938.8 -3331.3,-942.4 -3330.8,-943.6 -3321.8,-940 					"/>
					<line id="Fill-14_4_" class="st39" x1="-3309.8" y1="-937.9" x2="-3305.1" y2="-937.4"/>
					<polygon id="Fill-16_4_" class="st21" points="-3305.2,-936.8 -3309.9,-937.3 -3309.8,-938.6 -3305.1,-938 					"/>
				</g>
				<g id="Group-5_1_" transform="translate(1.000000, 55.000000)">
					<path id="Fill-1_7_" class="st11" d="M-3312.6-990.6c0,1-0.8,1.9-1.9,1.9c-1,0-1.9-0.8-1.9-1.9c0-1,0.8-1.9,1.9-1.9
						C-3313.5-992.5-3312.6-991.7-3312.6-990.6"/>
				</g>
				<g id="SCALABLE_10_">
					<rect id="Rectangle_11_" x="-3315.7" y="-947.5" class="st6" width="42.1" height="14"/>
				</g>
			</g>
			<g id="Facial-Hair_x2F_None" transform="translate(1596.000000, 1238.000000)" class="st22">
				<g id="SCALABLE_11_">
					<rect id="Rectangle_12_" x="-3323.9" y="-948.3" class="st6" width="38.2" height="38"/>
				</g>
			</g>
			<g id="HAS-SKIN" transform="translate(25.000000, 0.000000)" class="st22">
				<rect id="Rectangle_13_" x="-2035.6" y="66.9" class="st6" width="18" height="18"/>
			</g>
			<g id="SCALABLE_12_" class="st22">
				<rect id="Rectangle_14_" x="-2015.1" y="66.9" class="st6" width="419.3" height="449.9"/>
			</g>
		</g>
		<g id="Big-Lamp" transform="translate(749.000000, 996.000000)">
			<g id="Clip-2">
			</g>
			<path id="Fill-1_8_" class="st15" d="M12-461.3l11.1-11L8.7-486.8l-53.4,53.3c0,0-5.7,5.5-7.6,10.9c-2,5.5-2,11.4-2,11.4
				l-0.1,327.7h79.9c3.1,0,5.7,2.6,5.7,5.7v0.1c0,3.1-2.6,5.7-5.7,5.7h-84c-3.1,0-5.7-2.6-5.7-5.7v-0.1c0-2.6,2-4.8,4.4-5.5v-328
				c0,0,0.2-8,2.8-14.5c2.2-5.5,6.7-10.1,8.9-12.2l0.1-0.1l52.9-52.8l-6.7-6.7c-1.1-1.1-1.1-2.8,0-3.9l7.5-7.4
				c1.1-1.1,2.8-1.1,3.9,0l23.2,23.4c0.8,0.8,1,2,0.6,3l12.3-12.1l35.7,36.1l-33.5,33.2L12-461.3z"/>
		</g>
	</g>
	<g id="Upper-Body_x2F_With-Laptop">
		<path id="Neck_1_" class="st23" d="M1392.3,596.8c0,0-0.7,14.6-9.2,19.8c-7.7,4.7,8.6,31.8,26.3,30.2c9.6-0.9,11.9-27.3,11.9-27.3
			s-7.8-1.5-4.9-13.4L1392.3,596.8z"/>
		<path id="Head_1_" class="st23" d="M1406.4,611.7c-11.4-1.4-19.7-8.9-20.8-21.3c-3.3,0.5-4.1-8.1-3.2-10.9
			c0.9-2.8,3.9-1.2,3.9-1.2c0.2-0.4,0.3-0.9,0.4-1.4c5-20.5,19-19.7,19-19.7c25.7,1.3,19.7,27.6,18.2,34.5
			C1422.5,598.7,1417.4,613,1406.4,611.7z"/>
		<g id="Group-25" transform="translate(266.000000, 320.000000)">
			<g id="Group-19" transform="translate(0.000000, 0.612000)">
				<path id="Path_1_" class="st23" d="M1059.8,348.6c-10,17.6-12.1,30.8-6.5,39.5c8.4,13.1,20.4-4.2,25.3-23.5
					c3.3-12.9,8.3-23.1,15.1-30.8L1059.8,348.6z"/>
				<g id="Group-3_1_" transform="translate(695.000000, 361.000000)">
					<g id="Clip-2_1_">
					</g>
				</g>
				<path id="Fill-4_3_" class="st16" d="M1094.2,301.7c14.9-4.6,19.5-4.9,19.5-4.9l15.7,3.4c0,0,8.6,11.3,9.4,21.5
					c0,0,0.3-13.3,5.9-22.4c0,0,25-0.2,34.4,9.6c14.9,15.5,14.6,42.8,14.6,42.8l-24.5,2.5l10-13.8c0,0,0.6,56.4-0.8,71
					c-18.7,20.7-86,4.7-86,4.7s1.5-46.7,1.7-59.4c0.3-12.8-4.5-11-11,4.8c-5.3,12.9-22.2-13.9-22.2-13.9S1071.2,308.9,1094.2,301.7z
					"/>
				<path id="Fill-6_4_" class="st20" d="M1170.4,372c0,0,12.1-4.3,24.4-1.8c0,0-0.2-4,0-9.3c0.1-4.4,2.5-11.1-6.1-10.4
					c-10,0.8-14.3,0.9-18.7,2.9C1170,353.4,1169,367.9,1170.4,372"/>
				<path id="Fill-10_4_" class="st17" d="M1055.2,355.8l5.3-16.6c0,0,19.5-4.1,27.3,12.8l-5.8,15
					C1082,367.1,1071.1,351.1,1055.2,355.8"/>
				<g id="Group-14_1_" transform="translate(338.000000, 0.000000)">
					<g id="Clip-13">
					</g>
					<path id="Fill-12_5_" class="st17" d="M776,294.4c0,0-10,3.4-9.4,4.3s18.3,12.7,19.6,12.2s6.3-10,5.6-10.9
						C791.2,299,776.9,294.1,776,294.4"/>
				</g>
				<path id="Fill-15_3_" class="st17" d="M1160.8,298.5c0,0,8.6,6.1,7.7,6.8s-21.2,6.9-22.3,6c-1.1-0.9-3.2-11.3-2.2-12
					C1144.9,298.6,1160.1,297.9,1160.8,298.5"/>
				<path id="Fill-8_2_" class="st23" d="M1067.1,365.9c4.9,7.2,2,7.3,4.1,11.3s4.2,12.2,6.6,12s2.6-1.6,1.6-4.1
					c-1-2.6-3.8-10.7-2.7-11.1c1-0.4,4.4,15.8,8.3,15.5s0.6-8.5-1.1-12.3c-1.8-3.7-2.4-6.4-1.2-6.2c1.1,0.2,5.4,18.3,8.6,17.8
					s1.6-6.9-0.2-10.7c-1.7-3.7-4.4-9.7-4.4-9.7s4.4,5.8,6.5,12.7c2,6.9,3.3,7.2,4.4,6.6c1.1-0.7-0.4-8.8-0.4-8.8s3.8-6.2-1-11.8
					c-4.8-5.5-7.5-11.4-14-14.5c-6.6-3.1-10.7-0.5-10.7-0.5S1062.1,358.7,1067.1,365.9z"/>
				<path id="Fill-17_3_" class="st17" d="M1163,332.1h-16.3c-0.7,0-1.2-0.5-1.2-1.2v-1.4c0-0.7,0.5-1.2,1.2-1.2h16.3
					c0.7,0,1.2,0.5,1.2,1.2v1.4C1164.2,331.6,1163.7,332.1,1163,332.1"/>
			</g>
			<g id="Group-24_1_" transform="translate(397.000000, 175.000000)">
				<path id="Fill-20_1_" class="st12" d="M751.5,218.3l-32.9-9.1c0,0-2.1-2.2,4-2.7c6-0.6,68.9-2.2,68.9-2.2L751.5,218.3z"/>
				<path id="Fill-22_1_" class="st40" d="M844.7,218.2h-92.2c-1.7,0-3.1-1.4-3.1-3.1l8.4-60.7c0-1.7,1.4-3.1,3.1-3.1h92.2
					c1.7,0,3.1,1.4,3.1,3.1l-8.4,60.7C847.8,216.9,846.4,218.2,844.7,218.2"/>
			</g>
			
				<g id="Group-2" transform="translate(893.239277, 513.555823) scale(-1, 1) rotate(-72.000000) translate(-893.239277, -513.555823) translate(800.239277, 441.555823)">
				<path id="Fill-12_4_" class="st23" d="M106.5-275.8c0,0-0.8,0.8-1.7,1.8c-0.8,1-0.1,1.2-1.9,3.1s-5.2,6.9,0.6,14.4
					s7.8,6.9,10.2,5.6c2.4-1.3,2.7-2.2,7.2-2.7s8.9-4.9,8.8-6l-0.1-1.1c0,0,4.2-1.6,3.9-3.3c-0.3-1.8-1.5-1.6-1.5-1.6
					s0.8-0.8,0.2-2.3s-3.7-1.2-7.2-0.7s-12.6,2.3-13.2,1.9s-0.4-0.9,1.8-1.2c2.1-0.3,10.8-0.4,10.8-2.8s-2.6-2.9-7.6-2.8
					c-5,0.1-5.9-0.2-7.1,0.3l-2.2,0.3C106.8-274.9,106.5-275.8,106.5-275.8z"/>
				<path id="Fill-14_5_" class="st26" d="M132.1-265.7c0,0,0.3-0.2-1.7,0.6c-0.7,0.3-1.7,0.6-3.2,0.8c-5.4,1-13.8,2.9-16.4,3.2
					c-2.6,0.4-0.5,0.9,5.5-0.3c6-1.2,13-2.8,13.3-2.9C130.2-264.4,131.8-264.9,132.1-265.7"/>
				<path id="Fill-16_5_" class="st26" d="M121.2-258.1c-2.3,0.6-6.1,1.4-6.5,1.5c-0.7,0.2-2.1,0.5-2.1,0.5s0,0.5,4.3-0.4
					c1.1-0.2,3.1-0.5,4.3-0.9c1.2-0.3,5.3-1.4,5.9-1.9s0.6-0.9,0.6-0.9S123.3-258.6,121.2-258.1z"/>
			</g>
		</g>
	</g>
	<g id="Lower-Body_x2F_Sitting-on-Floor_x2F_Legs-Crossed-2_1_">
		<g id="Group-46_1_" transform="translate(69.000000, 357.000000)">
			<path id="Fill-1_10_" class="st23" d="M1329.6,416.9l5.7,3.2c0,0,8-8.1,7-6.8s-8.6-2-8.6-2L1329.6,416.9z"/>
			<path id="Stroke-3_1_" class="st41" d="M1329.6,416.9l5.7,3.2c0,0,8-8.1,7-6.8s-8.6-2-8.6-2L1329.6,416.9z"/>
			<path id="Fill-5_6_" class="st42" d="M1395.5,415.4c-7.3,0.6-39.3,16-39.3,16l0.8,4.1c0,0,31.8,7,40.8-3.2
				C1406.8,422,1395.5,415.4,1395.5,415.4"/>
			<path id="Fill-7_6_" class="st43" d="M1390.8,416.5c10.1,5.3,4.3,18,4.3,18c4.5-2,7.6-7.9,6.2-13s-5.8-6-5.8-6L1390.8,416.5z"/>
			<path id="Fill-9_4_" class="st44" d="M1391.8,435.9c-10.6,5.5-35.3-0.3-35.3-0.3l-1.2-4.2l6.7-2.7c2,0.4,22.1-0.7,23.9-0.8
				C1387.7,427.6,1391.8,435.9,1391.8,435.9"/>
			<path id="Fill-11_4_" class="st45" d="M1386.4,420.3c0,0-0.1-0.9-0.6-1.7c-0.5-0.7-16.1,5.3-17.2,6.9c-1,1.6-2.9,4.8-1.2,5.2
				c1.7,0.4,2.2-2.6,4.1-5.1s-1.4,4.3,0.4,5.3s3.8-7.2,4.8-7s-1.7,6.4,0.3,6.5c1.9,0.1,2.7-6,3.9-9.3c1.2-3.2-1.7,8.4-0.3,10
				c1.4,1.6,1.7-3.7,2-7.9c0.4-4.2,0.9,7.9,3.1,7.9C1387.9,431,1386.4,420.3,1386.4,420.3"/>
			<g id="Group-15_1_" transform="translate(0.000000, 0.784000)">
				<path id="Fill-13_3_" class="st19" d="M1362.4,430.1c-5.9,8.1-17.2-19.1-19.3-18.4c-2,0.7-7.6,0.8-7.6,0.8l-9.7-7
					c1.9,11.2-5.1,18.9-5.1,18.9l-16.1,1c-16.1,1-47.5-9.6-57.7-14.5s-17.2-19.4-11.2-34.1c5.9-14.7,25.3-9.3,37.4-5.7
					s35.5,4.9,52.9,4.9s53.9-6.9,65-11.8s34.2-16.4,44-1.3s-0.3,28.6-17.7,42.4C1399.9,419.2,1362.4,430.1,1362.4,430.1"/>
			</g>
			<path id="Fill-16_7_" class="st23" d="M1342.8,412.8c0,0-11.9,6.8-13.4,8.8s-14.6,5-14.6,5s-2.3,13.4,1.6,16
				c3.9,2.7,11.9,0.6,15.9-1.9c3.9-2.5,20.2-8.5,20.2-8.5L1342.8,412.8z"/>
			<path id="Fill-18_3_" class="st42" d="M1316.3,427.7c0,0,4.2,12.7,4.1,15.1s-3.5,4.4-6.9,5.6c-3.4,1.1-18.7-1.1-26.6-0.5
				s-16.6,5.3-23-4.4c-6.4-9.7,8.4-23.5,15.3-21.6s31.2,4.6,33.7,4.2C1315.5,425.5,1316.3,427.7,1316.3,427.7"/>
			<path id="Fill-20_3_" class="st43" d="M1280.9,423.1c0,0,3,0.5,0-1.1s-11.7-0.7-17.3,10.2c-5.5,10.9,4.2,15.5,4.2,15.5
				s-0.9-5.6,1-12.5C1270.7,428.1,1280.9,423.1,1280.9,423.1"/>
			<path id="Fill-22_3_" class="st46" d="M1282.1,422.8c0,0,2.2,8.7,1.5,15.2s-9.9,11.4-9.9,11.4c5.9-1.2,10.2-7.1,11-7.8
				c0.8-0.6,2.1,0.1,2.1,0.1s31.8,5.5,33.5,2.6s-3-14-3-14s-21.6,4.7-26.2,4.8c-4.6,0.1-4.3-0.8-4.3-0.8
				C1286.3,429.5,1282.1,422.8,1282.1,422.8"/>
			<path id="Fill-24_2_" class="st11" d="M1312.6,429.6c-0.1-1.1-0.8-0.7-2,0.5s1,15.2,3.1,15.6s1.1-2.7-0.1-6.2
				C1312.3,435.9,1312.6,429.6,1312.6,429.6"/>
			<path id="Fill-26_2_" class="st11" d="M1309.1,430.3c-0.1-1.1-0.8-0.7-2,0.5s1,15.2,3.1,15.6s1.1-2.7-0.1-6.2
				C1308.9,436.6,1309.1,430.3,1309.1,430.3"/>
			<path id="Fill-28_2_" class="st11" d="M1297,430.5c-0.1-1-0.8-0.7-2,0.4s1,13.9,3.1,14.3s1.1-2.5-0.1-5.7
				C1296.7,436.3,1297,430.5,1297,430.5"/>
			<path id="Fill-30_3_" class="st11" d="M1292.4,431.2c-0.1-1-0.8-0.6-2,0.4s1,13,3.1,13.3s1.1-2.3-0.1-5.3
				C1292.1,436.6,1292.4,431.2,1292.4,431.2"/>
			<path id="Fill-32_3_" class="st11" d="M1289,430.9c0-1-0.7-0.7-2.1,0.1s-0.8,13,1.2,13.6s1.4-2.1,0.6-5.3
				C1288,436.1,1289,430.9,1289,430.9"/>
			<path id="Fill-34_3_" class="st11" d="M1304.8,430.7c-0.2-1.1-0.9-0.6-2,0.7s2.6,15,4.7,15.2s0.8-2.8-0.8-6.2
				C1305.2,437,1304.8,430.7,1304.8,430.7"/>
			<path id="Fill-36_2_" class="st11" d="M1303,430.6c0.1-1.1-0.7-0.9-2.1,0.1s-1.3,15.2,0.6,15.9s1.5-2.5,0.8-6.2
				C1301.8,436.8,1303,430.6,1303,430.6"/>
			<path id="Fill-38_2_" class="st11" d="M1316.9,429.9c5.6,1.8,3.9,13.4,3.9,13.4s-7.3,2-8.5-5.1
				C1311.1,431.1,1316.9,429.9,1316.9,429.9"/>
			<polygon id="Stroke-40_2_" points="1399.4,368.8 1348.1,409.3 1336.6,414.1 1324.6,406.6 1284.3,381.1 1284.7,380.5 1324.9,406 
				1336.7,413.3 1347.7,408.6 1398.9,368.3 			"/>
			<path id="Fill-42_2_" class="st47" d="M1323.7,402.1c2.5,7.9-0.7,16.2-2.5,20.8c-1.8,4.5,1,2.1,7.9-0.7c6.9-2.9,7.6-9.7,5.3-13.7
				C1332.1,404.5,1323.7,402.1,1323.7,402.1"/>
			<path id="Fill-44_2_" class="st47" d="M1348,407.4c-0.7-3.1-10.1,4.4-10.1,4.4c0.2,9.2,8.7,19.5,12.6,24.1s3.8,4.7,5.5,2.5
				s4.3-3.1,5.9-4.8c1.7-1.8-2.9-2.5-8-9.7C1348.8,416.7,1348,407.4,1348,407.4"/>
		</g>
		<g id="SCALABLE_14_">
			<rect id="Rectangle_30_" x="1101" y="648.9" class="st6" width="419.3" height="157.6"/>
		</g>
	</g>
	<g id="Hairstyle_x2F_Bob">
		<path id="Fill-1_9_" class="st21" d="M1368.9,607c0,0,1.8-25.1,7.6-39.9c7.3-18.7,19.5-26.3,30.1-22.7c0,0,15.1-1.8,19.8,11.5
			c4.7,13.3,2.9,55.6,2.9,55.6l-11.9-0.9c0,0-1.7-4.5-0.9-7.9c0,0,6.7-7.1,8.6-17.7c2.5-14.3-5.6-14.4-12.5-17.5
			c-6.9-3-10.9-7-10.9-7s-11.2,15.3-9.3,47.6L1368.9,607z"/>
	</g>
	<g id="Expression_x2F_Happy">
		<g id="Group-124_1_" transform="translate(25.000000, 52.000000)">
			<path id="Stroke-114_1_" d="M1389.8,523.4l0.7,0.2l-0.1,0.2c-0.1,0.2-0.1,0.4-0.2,0.6c-0.2,0.6-0.4,1.3-0.5,2
				c-0.2,0.8-0.4,1.5-0.5,2.2v0.2c-0.3,1.8-0.4,3.2-0.1,4l0,0c1.6,4-0.6,6-5.1,4.6h-0.1l0.2-0.7c4.1,1.3,5.7-0.2,4.4-3.6
				c-0.4-0.9-0.3-2.5,0.1-4.6c0.1-0.7,0.3-1.5,0.5-2.3c0.2-0.6,0.3-1.3,0.5-1.8l0.1-0.2c0-0.1,0.1-0.3,0.1-0.4l0.1-0.3L1389.8,523.4
				z"/>
			<path id="Stroke-122_1_" class="st37" d="M1372,550.9l0.4-0.6l0.1,0.1l0.1,0.1c0.2,0.1,0.4,0.2,0.6,0.3l0.1,0.1
				c0.8,0.4,1.6,0.7,2.5,1.1c2.1,0.8,4.1,1.3,6,1.5c0.9,0.1,1.7,0.1,2.4,0h0.1l0.1,0.7c-0.9,0.1-1.8,0.1-2.7,0
				c-2-0.2-4.1-0.7-6.2-1.6c-0.9-0.4-1.8-0.7-2.6-1.1l-0.3-0.1c-0.1-0.1-0.2-0.1-0.4-0.2l-0.2-0.1V550.9z"/>
		</g>
		<g id="Group-16" transform="translate(27.000000, 30.000000)">
			<path id="Fill-3_7_" class="st21" d="M1382.5,565.7c-3.3-0.9-5.3-3-5.5-3.1c-0.2-0.2-0.2-0.6,0-0.8s0.6-0.2,0.8,0
				c0,0,2.5,2.6,6.1,3.1c0.3,0,0.5,0.3,0.4,0.6c0,0.3-0.3,0.5-0.6,0.4C1383.4,565.9,1382.9,565.8,1382.5,565.7"/>
			<path id="Fill-5_5_" class="st21" d="M1384.5,559.9c-0.7,0-1.6-0.1-2.8-0.5l0.2-0.7c2.1,0.7,3.7,0.6,4.4-0.2
				c0.6-0.7,0.6-1.9,0-3.4c-0.4-1-0.3-3,0.3-5.9c0.4-2.1,1-3.9,1-3.9l0.7,0.2c-0.6,2-2.1,7.5-1.4,9.3c0.9,2.3,0.4,3.5-0.1,4.2
				C1386.5,559.5,1385.7,559.9,1384.5,559.9"/>
			<g id="Group-9_4_" transform="translate(0.000000, 0.956000)">
				<path id="Fill-7_5_" class="st21" d="M1381.5,544.1c-0.1,0-0.2,0-0.3-0.1c-1-0.4-4.1-1.3-5.5-1.4c-1.3-0.1-3.3,0.6-4,0.8
					c-0.5,0.2-1.1-0.1-1.3-0.6c-0.2-0.5,0.1-1.1,0.6-1.3c0.1,0,2.8-1.1,4.9-1c2,0.1,5.8,1.5,6,1.5c0.5,0.2,0.8,0.7,0.6,1.3
					C1382.3,543.8,1381.9,544.1,1381.5,544.1"/>
			</g>
			<path id="Fill-10_5_" class="st21" d="M1398.2,548.4c-0.2,0-0.4-0.1-0.6-0.2c-0.6-0.4-2.2-1.5-3.5-1.7s-4.4,0-5.4,0.1
				c-0.5,0.1-1-0.3-1.1-0.9c-0.1-0.5,0.3-1,0.9-1.1c0.2,0,4.1-0.4,5.9-0.1c1.9,0.3,4.2,2,4.3,2.1c0.4,0.3,0.5,0.9,0.2,1.3
				C1398.8,548.3,1398.5,548.4,1398.2,548.4"/>
			<path id="Fill-12_6_" class="st21" d="M1379.6,550.2c-0.1,0-0.3-0.1-0.4-0.1c0,0-0.9-0.8-2.2-0.8c-1.3,0.1-2.2,0.7-2.2,0.7
				c-0.2,0.2-0.6,0.1-0.8-0.1s-0.1-0.6,0.1-0.8c0.1,0,1.2-0.9,2.8-0.9c1.7-0.1,2.9,1,3,1c0.2,0.2,0.2,0.5,0,0.8
				C1379.9,550.1,1379.8,550.2,1379.6,550.2"/>
			<path id="Fill-14_6_" class="st21" d="M1394.8,551.9c-0.1,0-0.3-0.1-0.4-0.1c0,0-0.9-0.8-2.2-0.8c-1.3,0.1-2.2,0.7-2.2,0.7
				c-0.2,0.2-0.6,0.1-0.8-0.1c-0.2-0.2-0.1-0.6,0.1-0.8c0.1,0,1.2-0.9,2.8-0.9c1.7-0.1,2.9,1,3,1c0.2,0.2,0.2,0.5,0,0.8
				C1395.1,551.8,1394.9,551.9,1394.8,551.9"/>
		</g>
		<g id="SCALABLE_13_">
			<rect id="Rectangle_15_" x="1392.5" y="566" class="st6" width="36.4" height="40.3"/>
		</g>
	</g>
</g>
<g class="st1">
	<g class="st22">
		<g>
			<defs>
				<rect id="SVGID_1_" x="450" y="397.1" width="1600" height="467.2"/>
			</defs>
			<clipPath id="SVGID_2_">
				<use xlink:href="#SVGID_1_"  style="overflow:visible;"/>
			</clipPath>
			<g class="st48">
				<text transform="matrix(1 0 0 1 641.6113 851.668)" class="st49 st50 st51 st52">A</text>
				<text transform="matrix(1 0 0 1 673.5114 851.668)" class="st49 st50 st51 st52"> </text>
				<text transform="matrix(1 0 0 1 686.3113 851.668)" class="st49 st50 st51">C</text>
				<text transform="matrix(1 0 0 1 718.8113 851.668)" class="st49 st50 st51">o</text>
				<text transform="matrix(1 0 0 1 750.1113 851.668)" class="st49 st50 st51">l</text>
				<text transform="matrix(1 0 0 1 766.3113 851.668)" class="st49 st50 st51">l</text>
				<text transform="matrix(1 0 0 1 782.7113 851.668)" class="st49 st50 st51 st52">e</text>
				<text transform="matrix(1 0 0 1 812.0114 851.668)" class="st49 st50 st51 st52">c</text>
				<text transform="matrix(1 0 0 1 839.6113 851.668)" class="st49 st50 st51">t</text>
				<text transform="matrix(1 0 0 1 860.8113 851.668)" class="st49 st50 st51">i</text>
				<text transform="matrix(1 0 0 1 876.7113 851.668)" class="st49 st50 st51">o</text>
				<text transform="matrix(1 0 0 1 908.0114 851.668)" class="st49 st50 st51 st52">n </text>
				<text transform="matrix(1 0 0 1 952.8113 851.668)" class="st49 st50 st51">o</text>
				<text transform="matrix(1 0 0 1 983.7113 851.668)" class="st49 st50 st51 st52">f</text>
				<text transform="matrix(1 0 0 1 1002.9113 851.668)" class="st49 st50 st51 st52"> </text>
				<text transform="matrix(1 0 0 1 1015.6113 851.668)" class="st49 st50 st51 st52">C</text>
				<text transform="matrix(1 0 0 1 1048.8113 851.668)" class="st49 st50 st51">a</text>
				<text transform="matrix(1 0 0 1 1078.3113 851.668)" class="st49 st50 st51">n</text>
				<text transform="matrix(1 0 0 1 1110.0114 851.668)" class="st49 st50 st51 st52">a</text>
				<text transform="matrix(1 0 0 1 1139.7113 851.668)" class="st49 st50 st51">d</text>
				<text transform="matrix(1 0 0 1 1171.6113 851.668)" class="st49 st50 st51">i</text>
				<text transform="matrix(1 0 0 1 1187.2113 851.668)" class="st49 st50 st51">a</text>
				<text transform="matrix(1 0 0 1 1216.7113 851.668)" class="st49 st50 st51 st52">n </text>
				<text transform="matrix(1 0 0 1 1261.6113 851.668)" class="st49 st50 st51">St</text>
				<text transform="matrix(1 0 0 1 1312.9114 851.668)" class="st49 st50 st51">o</text>
				<text transform="matrix(1 0 0 1 1344.2113 851.668)" class="st49 st50 st51 st52">r</text>
				<text transform="matrix(1 0 0 1 1366.6113 851.668)" class="st49 st50 st51">i</text>
				<text transform="matrix(1 0 0 1 1382.5114 851.668)" class="st49 st50 st51 st52">e</text>
				<text transform="matrix(1 0 0 1 1411.7113 851.668)" class="st49 st50 st51 st52">s</text>
				<text transform="matrix(1 0 0 1 1436.8113 851.668)" class="st49 st50 st51 st52"> </text>
				<text transform="matrix(1 0 0 1 1449.6113 851.668)" class="st49 st50 st51 st52">D</text>
				<text transform="matrix(1 0 0 1 1485.3113 851.668)" class="st49 st50 st51">u</text>
				<text transform="matrix(1 0 0 1 1516.8113 851.668)" class="st49 st50 st51 st52">r</text>
				<text transform="matrix(1 0 0 1 1539.2113 851.668)" class="st49 st50 st51">in</text>
				<text transform="matrix(1 0 0 1 1586.7113 851.668)" class="st49 st50 st51 st52">g </text>
				<text transform="matrix(1 0 0 1 1629.4114 851.668)" class="st49 st50 st51">C</text>
				<text transform="matrix(1 0 0 1 1661.2113 851.668)" class="st49 st50 st51">O</text>
				<text transform="matrix(1 0 0 1 1698.8113 851.668)" class="st49 st50 st51 st52">V</text>
				<text transform="matrix(1 0 0 1 1730.1113 851.668)" class="st49 st50 st51">I</text>
				<text transform="matrix(1 0 0 1 1747.1113 851.668)" class="st49 st50 st51 st53">D</text>
				<text transform="matrix(1 0 0 1 1784.0114 851.668)" class="st49 st50 st51">-</text>
				<text transform="matrix(1 0 0 1 1800.8113 851.668)" class="st49 st50 st51">1</text>
				<text transform="matrix(1 0 0 1 1830.2113 851.668)" class="st49 st50 st51">9</text>
			</g>
		</g>
	</g>
	<text transform="matrix(1 0 0 1 818.5273 757.2627)" class="st54 st55 st56">C</text>
	<text transform="matrix(1 0 0 1 934.3273 757.2627)" class="st54 st55 st56 st57">O</text>
	<text transform="matrix(1 0 0 1 1074.9272 757.2627)" class="st54 st55 st56 st58">R</text>
	<text transform="matrix(1 0 0 1 1200.4272 757.2627)" class="st54 st55 st56 st57">O</text>
	<text transform="matrix(1 0 0 1 1341.0273 757.2627)" class="st54 st55 st56 st57">N</text>
	<text transform="matrix(1 0 0 1 1477.5273 757.2627)" class="st54 st55 st56 st59">I</text>
	<text transform="matrix(1 0 0 1 1543.2273 757.2627)" class="st54 st55 st56 st59">C</text>
	<text transform="matrix(1 0 0 1 1662.3273 757.2627)" class="st54 st55 st56 st53">L</text>
	<text transform="matrix(1 0 0 1 1767.9272 757.2627)" class="st54 st55 st56 st57">E</text>
	<text transform="matrix(1 0 0 1 1881.7273 757.2627)" class="st54 st55 st56">S</text>
	<g class="st22">
		<g>
			<defs>
				<rect id="SVGID_3_" x="494.3" y="470.5" width="324.2" height="287.9"/>
			</defs>
			<clipPath id="SVGID_4_">
				<use xlink:href="#SVGID_3_"  style="overflow:visible;"/>
			</clipPath>
			<g class="st60">
				
					<image style="overflow:visible;enable-background:new    ;" width="311" height="277" xlink:href="CF5FBF53.png"  transform="matrix(1.0406 0 0 1.0418 494.5922 470.1721)">
				</image>
			</g>
		</g>
	</g>
	<text transform="matrix(1 0 0 1 818.5273 597.3013)" class="st54 st55 st56 st58">T</text>
	<text transform="matrix(1 0 0 1 932.7273 597.3013)" class="st54 st55 st56 st57">H</text>
	<text transform="matrix(1 0 0 1 1071.0273 597.3013)" class="st54 st55 st56">E</text>
</g>
</svg>
