<?xml version="1.0" standalone="no"?>
<!DOCTYPE svg PUBLIC "-//W3C//DTD SVG 20010904//EN"
 "http://www.w3.org/TR/2001/REC-SVG-20010904/DTD/svg10.dtd">
<svg version="1.0" xmlns="http://www.w3.org/2000/svg"
 width="1080.000000pt" height="1080.000000pt" viewBox="0 0 1080.000000 1080.000000"
 preserveAspectRatio="xMidYMid meet">
<metadata>
Created by potrace 1.11, written by Peter Selinger 2001-2013
</metadata>
<g transform="translate(0.000000,1080.000000) scale(0.100000,-0.100000)"
fill="#000000" stroke="none">
<path d="M4340 8526 c0 -3 -16 -67 -36 -143 -19 -76 -51 -199 -70 -273 -20
-74 -60 -232 -90 -350 -31 -118 -73 -281 -94 -362 -22 -81 -41 -158 -44 -170
-2 -13 -13 -57 -24 -98 -22 -79 -69 -263 -147 -565 -96 -373 -127 -493 -156
-604 -17 -63 -32 -121 -34 -130 -2 -9 -22 -88 -45 -176 -23 -88 -52 -200 -65
-250 -13 -49 -51 -198 -85 -329 -34 -132 -64 -247 -66 -255 -11 -47 -136 -531
-159 -614 -14 -54 -28 -106 -30 -115 -2 -9 -20 -80 -40 -157 -20 -77 -38 -147
-40 -155 -2 -8 -29 -114 -60 -235 -31 -121 -59 -227 -61 -235 -2 -8 -21 -83
-42 -167 l-39 -152 322 1 323 0 21 82 c11 44 48 185 80 311 33 127 80 311 106
410 25 99 60 232 76 295 17 63 53 203 80 310 28 107 61 238 75 290 14 52 50
192 80 310 59 229 113 437 139 535 9 33 18 69 20 80 3 11 16 65 31 119 14 55
27 107 29 115 2 9 13 52 25 96 12 44 26 96 30 115 14 61 170 662 191 738 11
40 22 81 24 91 2 10 27 108 55 217 28 110 67 260 86 334 20 74 49 187 66 250
16 63 31 123 33 132 2 9 20 79 40 155 20 76 38 145 40 153 2 8 26 102 53 208
l50 192 -324 0 c-178 0 -324 -2 -324 -4z"/>
<path d="M6923 8296 c-174 -57 -268 -234 -257 -487 11 -253 146 -410 362 -418
162 -6 295 89 353 254 26 76 36 236 20 331 -25 140 -104 253 -210 302 -68 31
-200 40 -268 18z"/>
<path d="M1815 6974 c-214 -139 -414 -268 -442 -286 -29 -18 -137 -88 -240
-154 -301 -195 -734 -474 -784 -506 l-47 -30 0 -422 1 -421 91 -60 c50 -33
130 -84 176 -114 290 -186 685 -440 740 -476 150 -98 545 -350 554 -355 6 -3
70 -44 141 -90 72 -47 147 -96 168 -109 l37 -23 0 405 0 404 -132 83 c-73 45
-144 90 -158 99 -14 9 -33 20 -43 26 -24 14 -372 231 -432 270 -27 17 -90 56
-138 86 -48 30 -98 61 -111 69 -169 106 -297 172 -361 186 -11 2 -33 8 -50 12
l-30 9 40 12 c51 16 108 38 165 64 25 11 252 149 505 307 253 157 524 326 603
375 l142 88 0 404 c0 222 -1 403 -2 402 -2 0 -178 -115 -393 -255z"/>
<path d="M8384 6818 l1 -402 121 -75 c67 -42 290 -181 495 -309 206 -129 383
-239 394 -245 10 -7 55 -35 100 -62 97 -61 136 -80 238 -115 42 -15 80 -30 83
-33 3 -3 -12 -11 -35 -17 -102 -27 -276 -119 -438 -231 -23 -16 -43 -29 -46
-29 -4 0 -707 -437 -843 -524 l-72 -46 0 -400 c0 -385 1 -399 19 -390 15 9
294 188 561 361 81 53 153 99 688 444 228 148 466 301 528 341 l112 74 0 422
-1 423 -42 26 c-23 15 -87 56 -142 91 -55 36 -442 284 -860 553 -418 268 -779
500 -803 516 -24 16 -47 29 -51 29 -5 0 -8 -181 -7 -402z"/>
<path d="M5730 6465 l0 -414 453 0 c248 0 472 0 497 0 l45 -1 -1 -1122 c-1
-618 -4 -1138 -8 -1155 -3 -18 -8 -47 -11 -63 -12 -71 -61 -165 -114 -219 -33
-34 -91 -65 -138 -76 -18 -3 -206 -7 -418 -7 l-385 0 -1 -41 c0 -52 0 -757 0
-775 1 -20 850 -16 946 4 88 18 179 51 227 81 21 13 42 23 48 23 5 0 10 4 10
9 0 5 9 12 20 16 31 10 164 149 213 223 110 165 179 358 212 586 3 23 9 59 12
81 3 22 7 766 9 1653 l3 1612 -809 0 -810 0 0 -415z"/>
</g>
</svg>
